<?xml version="1.0" encoding="UTF-8"?>
<svg id="Logo_version_2" xmlns="http://www.w3.org/2000/svg" viewBox="0 0 128 128">
  <defs>
    <style>
      .cls-1, .cls-2 {
        stroke-width: 1.31px;
      }

      .cls-1, .cls-2, .cls-3, .cls-4, .cls-5, .cls-6, .cls-7, .cls-8, .cls-9 {
        stroke-miterlimit: 10;
      }

      .cls-1, .cls-2, .cls-3, .cls-5, .cls-6, .cls-7, .cls-9 {
        fill: none;
      }

      .cls-1, .cls-8 {
        stroke: #707070;
      }

      .cls-2 {
        stroke: #8c8a79;
      }

      .cls-10 {
        fill: #eadf7d;
      }

      .cls-3 {
        stroke: #eadf7d;
        stroke-width: 1.5px;
      }

      .cls-11, .cls-12, .cls-13 {
        fill: #fff;
      }

      .cls-14 {
        fill: #7a7a77;
      }

      .cls-15 {
        fill: #383838;
      }

      .cls-4 {
        stroke-width: 9.97px;
      }

      .cls-4, .cls-7, .cls-9 {
        stroke: #000;
      }

      .cls-12, .cls-16, .cls-13, .cls-17, .cls-18 {
        font-family: Nikkyou-Sans, 'Nikkyou Sans';
      }

      .cls-12, .cls-16, .cls-18 {
        font-size: 12.13px;
      }

      .cls-19 {
        fill: #606060;
      }

      .cls-16 {
        fill: #565656;
      }

      .cls-5 {
        stroke: #f9f7e8;
        stroke-width: .19px;
      }

      .cls-6 {
        stroke: #e2e2e2;
        stroke-width: 3.76px;
      }

      .cls-13 {
        opacity: .16;
      }

      .cls-13, .cls-17 {
        font-size: 4.81px;
      }

      .cls-20, .cls-18 {
        fill: #af76e2;
      }

      .cls-21 {
        fill: #999895;
      }

      .cls-22 {
        fill: #3a3a3a;
      }

      .cls-23 {
        fill: #d3d3d3;
      }

      .cls-24 {
        fill: #fffab6;
      }

      .cls-7, .cls-8 {
        stroke-width: .05px;
      }

      .cls-8 {
        fill: #d6d6d6;
      }

      .cls-17 {
        opacity: .72;
      }

      .cls-17, .cls-25 {
        fill: #efec7d;
      }

      .cls-26 {
        font-family: MyriadPro-Regular, 'Myriad Pro';
        font-size: 1.99px;
      }

      .cls-9 {
        stroke-width: .09px;
      }
    </style>
  </defs>
  <g>
    <ellipse class="cls-11" cx="64" cy="64" rx=".09" ry="1.21" transform="translate(-25.64 51.46) rotate(-37.03)"/>
    <path class="cls-11" d="M63.6,64.22c.15.2.3.4.43.61.04.07.08.14.13.21.14.18-.05.21.04-.21l.52-.4c.41.03.35.2.21.02-.04-.05-.09-.09-.13-.14-.16-.19-.31-.38-.46-.58-.13-.18-.26-.36-.39-.55-.05-.07-.08-.14-.13-.21-.14-.18.05-.21-.04.21l-.52.4-.31-.11s.05.05.07.07c.03.05.12.13.15.17.14.17.28.34.42.52.18.23.46.35.74.19.23-.13.37-.51.19-.74-.3-.4-.7-1.14-1.26-1.18-.22-.02-.48.18-.52.4-.11.53.47,1.12.76,1.49s.68,1.08,1.22,1.12c.22.02.48-.18.52-.4.11-.51-.44-1.06-.71-1.43-.18-.24-.47-.35-.74-.19-.23.13-.37.51-.19.74Z"/>
  </g>
  <g>
    <ellipse class="cls-11" cx="64" cy="64" rx=".07" ry="1.05" transform="translate(-17.78 102.79) rotate(-70.38)"/>
    <path class="cls-11" d="M63.9,64.38c.19.07.39.14.58.22.05.02.1.06.16.07.13.04.06.14-.06-.09l.17-.64.26-.05-.07-.02c-.06-.04-.18-.05-.24-.07-.2-.06-.4-.13-.6-.2-.18-.06-.36-.13-.53-.2-.07-.03-.13-.07-.2-.09-.13-.04-.06-.14.06.09l-.17.64-.26.05.07.02c.06.04.17.05.24.07.2.06.4.13.6.2.57.2.82-.71.25-.91-.39-.14-.96-.42-1.37-.23-.24.11-.27.43-.17.64.18.36.9.52,1.24.64.4.14.96.42,1.37.23.24-.11.27-.43.17-.64-.18-.36-.91-.52-1.24-.64-.57-.21-.81.7-.25.91Z"/>
  </g>
  <path class="cls-22" d="M64,1.34C29.39,1.34,1.34,29.39,1.34,64s28.06,62.66,62.66,62.66,62.66-28.06,62.66-62.66S98.61,1.34,64,1.34ZM64,101.72c-20.83,0-37.72-16.89-37.72-37.72s16.89-37.72,37.72-37.72,37.72,16.89,37.72,37.72-16.89,37.72-37.72,37.72Z"/>
  <path class="cls-4" d="M64,7.41c-31.26,0-56.59,25.34-56.59,56.59s25.34,56.59,56.59,56.59,56.59-25.34,56.59-56.59S95.26,7.41,64,7.41ZM64,107.74c-24.16,0-43.74-19.58-43.74-43.74s19.58-43.74,43.74-43.74,43.74,19.58,43.74,43.74-19.58,43.74-43.74,43.74Z"/>
  <path class="cls-23" d="M106.7,64c-.07,17.74-11.33,34.03-28.05,40.12s-36.06.89-47.48-12.82c-11.49-13.79-13.02-33.95-3.75-49.32,9.24-15.31,27.56-23.38,45.09-19.83,17.21,3.49,30.85,17.69,33.65,35.02.37,2.26.53,4.54.54,6.83,0,.36.57.36.56,0-.07-18.01-11.51-34.48-28.47-40.66s-36.73-.81-48.24,13.22-12.98,34.25-3.63,49.75,27.94,23.69,45.73,20.09,31.39-18.1,34.1-35.75c.34-2.2.5-4.42.51-6.64,0-.36-.56-.36-.56,0Z"/>
  <path class="cls-23" d="M105.32,64c-.07,17.23-11.04,33.02-27.29,38.88s-34.76.77-45.78-12.44c-11.16-13.38-12.63-32.96-3.58-47.85,8.95-14.74,26.61-22.49,43.52-19.09,16.71,3.37,29.95,17.17,32.63,34,.34,2.15.5,4.33.51,6.5,0,.36.57.36.56,0-.07-17.38-11.06-33.27-27.39-39.31s-35.67-.89-46.85,12.73-12.58,33.26-3.46,48.28c9.09,14.96,26.99,22.8,44.16,19.35,17-3.42,30.49-17.58,33.07-34.74.31-2.09.47-4.2.47-6.31,0-.36-.56-.36-.56,0Z"/>
  <path class="cls-15" d="M108.25,64c-.07,18.45-11.83,35.37-29.24,41.64s-37.26.8-49.05-13.37c-11.94-14.34-13.48-35.32-3.77-51.26,9.62-15.78,28.55-24.05,46.67-20.37s31.96,18.38,34.84,36.35c.37,2.32.54,4.66.55,7.01,0,.36.56.36.56,0-.07-18.6-11.85-35.62-29.34-42.07-17.71-6.53-38.17-.93-50.12,13.65-11.92,14.54-13.44,35.62-3.65,51.69,9.72,15.95,28.82,24.32,47.14,20.66,18.14-3.62,32.57-18.66,35.42-36.94.36-2.32.54-4.65.54-6.99,0-.36-.56-.36-.56,0Z"/>
  <circle class="cls-6" cx="64" cy="64" r="35.25"/>
  <path class="cls-2" d="M96.5,63.99c0,2.94-.37,5.77-1.12,8.48-.08.29-.16.59-.24.88h-.03c-1.07,3.64-2.75,7-4.97,9.97-.19.24-.37.51-.56.75h-.03c-2.25,2.89-4.97,5.37-8.07,7.33-.32.24-.67.43-1.02.64-3.05,1.79-6.42,3.1-10.03,3.82-.43.11-.86.16-1.31.24-1.66.27-3.37.4-5.11.4-1.87,0-3.69-.16-5.45-.48-.51-.05-.99-.16-1.47-.27-3.45-.75-6.71-2.03-9.65-3.8-.48-.27-.96-.56-1.42-.88-2.86-1.9-5.4-4.25-7.51-6.92-.37-.45-.72-.94-1.04-1.42-1.98-2.75-3.5-5.8-4.49-9.09-.19-.56-.35-1.12-.51-1.71-.62-2.54-.96-5.19-.96-7.94,0-.72.03-1.42.08-2.11.03-.61.08-1.2.16-1.79.4-3.45,1.34-6.68,2.75-9.71.24-.56.51-1.1.8-1.63,1.6-3.02,3.66-5.75,6.1-8.07.43-.43.86-.83,1.31-1.2,2.57-2.25,5.45-4.06,8.61-5.4.51-.21,1.02-.43,1.55-.59,3.18-1.18,6.58-1.84,10.13-1.95.35-.03.67-.03,1.02-.03.19,0,.37,0,.56.03,3.61.03,7.06.7,10.29,1.84.45.16.91.32,1.36.51,3.32,1.34,6.34,3.21,9.01,5.53.32.27.64.56.96.86,2.65,2.49,4.89,5.4,6.58,8.64.19.32.35.64.51.96v.03c1.58,3.26,2.62,6.82,3.02,10.59.03.29.05.61.08.94.08.86.11,1.71.11,2.57Z"/>
  <path class="cls-14" d="M96.86,59.53c-.14-.27-.42-.45-.8-.46l-11.14-.59c-.95-.05-1.34-1.25-.58-1.85l8.69-6.98c.26-.2.39-.45.41-.72v-.03c-.17-.32-.35-.64-.55-.96-.22-.13-.52-.17-.84-.08l-10.59,3.48c-.91.3-1.7-.7-1.22-1.5l5.59-9.66c.15-.25.17-.52.11-.73-.1-.46-.52-.82-1-.83-.22-.02-.46.07-.67.24l-8.6,7.09c-.74.59-1.84-.02-1.68-.97l1.73-11.02c.05-.22.01-.43-.08-.62-.23-.51-.89-.73-1.4-.47-.19.06-.34.2-.47.42l-5.48,9.71c-.46.83-1.71.63-1.9-.31l-2.38-10.88c-.03-.19-.12-.35-.23-.45-.4-.53-1.23-.5-1.59.06-.1.11-.18.28-.2.47l-1.62,11.01c-.13.95-1.36,1.24-1.88.44l-6.14-9.31c-.09-.13-.2-.24-.33-.29-.61-.41-1.44-.06-1.55.65-.05.14-.04.27-.01.43l2.49,10.87c.22.94-.84,1.63-1.61,1.08l-9.07-6.48c-.11-.08-.19-.13-.3-.15-.77-.24-1.52.51-1.28,1.26,0,.11.06.21.12.32l6.25,9.25c.54.77-.18,1.82-1.11,1.58l-10.81-2.74c-.11-.02-.22-.05-.33-.04-.84.03-1.29,1.07-.75,1.68.06.08.14.16.22.21l9.15,6.37c.8.54.49,1.77-.45,1.88l-11.07,1.36c-.11,0-.22.03-.29.09-.77.3-.84,1.44-.1,1.82.08.08.17.1.27.13l10.83,2.6c.93.24,1.11,1.48.26,1.94l-9.83,5.27c-.11.06-.21.12-.29.2-.55.59-.22,1.6.57,1.71.11.02.22.05.33.02l11.07-1.47c.94-.14,1.55.97.92,1.7l-7.28,8.45c-.08.11-.15.22-.18.33-.3.71.35,1.5,1.1,1.4.13-.03.24-.06.37-.12l9.77-5.37c.82-.46,1.8.34,1.48,1.25l-3.72,10.52c-.05.16-.07.33-.07.46.47.31.97.59,1.46.84.13-.06.27-.14.37-.28l7.17-8.56c.62-.73,1.8-.31,1.83.64l.33,11.16c0,.22.07.4.18.53.29.5,1.05.61,1.5.22.16-.11.26-.25.34-.47l3.61-10.54c.29-.9,1.56-.95,1.92-.07l4.33,10.27c.09.24.26.42.48.52.44.23,1.03.1,1.32-.29.16-.17.23-.39.22-.66l-.47-11.16c-.03-.95,1.11-1.45,1.79-.77l7.75,8.04c.2.21.47.31.71.33.43-.01.86-.27,1-.68.1-.22.09-.49-.03-.78l-4.44-10.24c-.38-.88.53-1.75,1.39-1.35l10.12,4.68c.3.15.6.11.87,0h.03c.29-.15.5-.45.54-.78.1-.3.03-.62-.25-.91l-7.85-7.93c-.67-.68-.14-1.83.8-1.76l11.15.7c.35.04.65-.1.83-.35h.03c.21-.25.28-.61.21-.9-.06-.3-.26-.56-.59-.71l-10.17-4.57c-.88-.4-.79-1.65.12-1.95l10.63-3.34c.35-.09.56-.34.66-.62.12-.33.08-.68-.11-.94ZM88.03,50.17c.28-.08.53-.04.72.07.17.27.32.55.47.82v.02c-.01.23-.12.44-.35.61l-6.31,5.07s-.02,0-.03,0l-4.15,1.1c-1.04.15-1.71-1.07-1.03-1.87l2.43-3.11,8.25-2.71ZM77.39,63.51l2.85.67c1.07.25.99,1.79-.1,1.93l-2.91.37c-.88.11-1.16,1.25-.42,1.75l2.42,1.66c.9.62.27,2.03-.79,1.77l-2.85-.7c-.86-.21-1.53.75-1.03,1.48l1.66,2.42c.62.9-.48,1.99-1.38,1.36l-2.4-1.68c-.73-.51-1.7.15-1.49,1.01l.67,2.85c.25,1.07-1.17,1.68-1.78.77l-1.63-2.44c-.49-.74-1.64-.48-1.76.4l-.4,2.9c-.15,1.09-1.7,1.15-1.93.08l-.64-2.86c-.19-.87-1.35-1.03-1.79-.26l-1.43,2.56c-.53.96-2,.46-1.83-.63l.44-2.9c.13-.88-.89-1.45-1.57-.89l-2.25,1.87c-.84.7-2.03-.29-1.48-1.25l1.46-2.54c.44-.77-.3-1.68-1.15-1.39l-2.78.93c-1.04.35-1.78-1.01-.93-1.7l2.28-1.85c.69-.56.32-1.67-.56-1.71l-2.93-.13c-1.09-.05-1.3-1.58-.26-1.92l2.79-.9c.84-.27.91-1.44.09-1.8l-2.68-1.18c-1-.44-.64-1.95.45-1.88l2.29.13c1.11.06,1.71-1.28.92-2.06l-1.62-1.62c-.78-.77.11-2.05,1.1-1.59l2.67,1.22c.81.37,1.64-.46,1.28-1.27l-1.19-2.68c-.44-1,.84-1.87,1.6-1.09l2.05,2.1c.62.63,1.7.17,1.65-.72l-.14-2.93c-.05-1.09,1.46-1.44,1.89-.43l1.15,2.7c.35.82,1.52.77,1.8-.07l.93-2.78c.35-1.04,1.88-.82,1.92.28l.1,2.93c.03.89,1.14,1.27,1.71.58l1.87-2.26c.7-.84,2.05-.08,1.69.95l-.96,2.77c-.29.84.61,1.59,1.38,1.16l2.56-1.43c.96-.53,1.94.66,1.23,1.5l-1.9,2.23c-.57.68,0,1.7.87,1.58l2.9-.41c1.09-.15,1.57,1.32.61,1.84l-2.58,1.4c-.78.42-.62,1.59.24,1.79ZM81.37,42.45c.18-.15.39-.22.57-.21.42,0,.78.32.86.71.05.18.04.42-.09.63l-4.14,7.15-3.46,2.53c-.92.51-1.98-.38-1.64-1.38l1.17-3.89,6.73-5.54ZM72.37,37.69c.11-.19.24-.31.4-.36.43-.22,1-.03,1.2.4.07.16.1.34.06.53l-1.29,8.21-2.35,3.68c-.67.81-1.99.36-2.02-.69l-.16-2.59c-.07-1.06.18-2.12.7-3.05l3.46-6.13ZM62.27,36.49c.02-.16.08-.3.17-.4.31-.47,1.03-.5,1.37-.05.1.09.17.23.2.39l1.82,8.31h0s-.95,4.22-.95,4.22c-.33,1-1.72,1.05-2.14.09l-1.73-3.94,1.27-8.61ZM52.4,39.01c-.03-.14-.03-.25.01-.37.09-.61.8-.91,1.32-.56.12.04.21.13.29.25l4.65,7.04h0s.64,4.46.64,4.46c.05,1.05-1.23,1.61-1.96.85l-2.95-2.95-2-8.73ZM44.12,44.93c-.05-.09-.1-.18-.1-.27-.21-.64.44-1.29,1.1-1.08.09.02.16.06.26.13l6.93,4.95c.02.09.04.18.08.27l2.03,3.75c.43.96-.56,1.94-1.52,1.5l-3.83-1.94s0,0-.01,0l-4.93-7.3ZM38.53,53.44c-.07-.04-.14-.11-.19-.18-.46-.52-.07-1.41.65-1.44.09,0,.19.02.28.04l8.37,2.12s.07.09.12.14l2.59,2.42c.93.93.22,2.52-1.1,2.44l-3.06-.21h0l-7.66-5.33ZM36.39,63.41c-.09-.02-.16-.04-.24-.11-.64-.33-.58-1.3.08-1.56.07-.05.16-.07.25-.08l8.66-1.06c.11.16.28.3.49.39l3.53,1.46c.96.42.89,1.81-.11,2.14l-4.02.9-8.66-2.08ZM37.99,73.46c-.09.03-.19,0-.28-.01-.68-.09-.96-.96-.49-1.47.07-.07.16-.12.25-.17l7.62-4.08c.08.02.17.04.26.04l4.18.33c1.05.05,1.49,1.37.67,2.03l-3.37,2.16-8.85,1.17ZM43.14,82.27c-.11.05-.21.08-.32.1-.65.09-1.2-.58-.95-1.2.02-.09.09-.19.15-.28l5.6-6.5c.08-.01.16-.03.25-.06l4.02-1.12c1-.33,1.88.74,1.36,1.65l-2.29,3.1-7.83,4.3ZM51.1,88.62c-.09.12-.2.19-.32.24-.42-.22-.85-.46-1.25-.72,0-.12.01-.26.06-.4l2.83-7.99c.06-.03.11-.07.16-.12l3.39-2.5c.81-.67,2.02.01,1.86,1.05l-.71,3.25-6.02,7.18ZM60.83,91.65c-.06.19-.15.31-.29.4-.38.34-1.03.24-1.28-.19-.1-.11-.15-.27-.15-.46l-.24-8.22c.11-.09.22-.21.3-.36l2.02-3.49c.51-.92,1.89-.72,2.12.31l.56,3.18-3.02,8.83ZM70.81,91.56c-.24.33-.75.44-1.13.25-.19-.09-.33-.24-.41-.45l-3.14-7.44c.07-.12.12-.27.14-.43l.54-3.98c.14-1.04,1.5-1.35,2.09-.48l1.71,2.81.38,9.16c0,.23-.06.42-.19.56ZM80.21,86.69c.1.25.11.48.02.67-.13.35-.49.57-.86.59-.21-.02-.44-.1-.61-.28l-5.55-5.76c0-.08-.01-.15-.03-.23l-1.04-4.06c-.24-1.02.91-1.8,1.77-1.2l2.62,1.78,3.68,8.49ZM87.28,79.33c.24.25.3.52.21.78-.04.28-.21.54-.46.66h-.02c-.23.1-.48.13-.74,0l-7.21-3.33c-.03-.12-.09-.25-.17-.37l-2.47-3.14c-.6-.87.2-2.01,1.22-1.76l3.21.66,6.43,6.5ZM91.2,69.95c.28.13.45.36.51.61.06.25,0,.56-.18.77h-.02c-.15.21-.41.34-.71.3l-7.95-.5c-.07-.08-.15-.16-.26-.23l-3.5-1.95c-.87-.59-.54-1.95.5-2.08l3.49-.58,8.12,3.65ZM92.25,60.96c-.08.23-.26.45-.56.53l-7.65,2.41s-.05-.02-.08-.03l-4.2-.53c-1.02-.24-1.21-1.62-.28-2.12l3.19-1.93,8.8.46c.32.01.56.17.69.39.17.23.2.53.1.81Z"/>
  <path class="cls-3" d="M97.26,63.99c0,3.01-.38,5.91-1.15,8.67-.08.3-.16.6-.25.9h-.03c-1.09,3.72-2.82,7.17-5.09,10.21-.19.25-.38.52-.57.77h-.03c-2.3,2.95-5.09,5.5-8.26,7.5-.33.25-.68.44-1.04.66-3.12,1.83-6.57,3.17-10.26,3.91-.44.11-.88.16-1.34.25-1.7.27-3.45.41-5.23.41-1.92,0-3.78-.16-5.58-.49-.52-.05-1.01-.16-1.5-.27-3.53-.77-6.87-2.08-9.88-3.89-.49-.27-.98-.57-1.45-.9-2.93-1.94-5.53-4.35-7.69-7.09-.38-.47-.74-.96-1.07-1.45-2.02-2.82-3.58-5.94-4.6-9.3-.19-.57-.36-1.15-.52-1.75-.63-2.6-.98-5.31-.98-8.13,0-.74.03-1.45.08-2.16.03-.63.08-1.23.16-1.83.41-3.53,1.37-6.84,2.82-9.93.25-.57.52-1.12.82-1.67,1.64-3.09,3.75-5.88,6.24-8.26.44-.44.88-.85,1.34-1.23,2.63-2.3,5.58-4.16,8.81-5.53.52-.22,1.04-.44,1.59-.6,3.26-1.2,6.73-1.89,10.37-2,.36-.03.68-.03,1.04-.03.19,0,.38,0,.57.03,3.69.03,7.22.71,10.53,1.89.47.16.93.33,1.4.52,3.39,1.37,6.48,3.28,9.22,5.66.33.27.66.57.98.88,2.71,2.54,5.01,5.53,6.73,8.84.19.33.36.66.52.98v.03c1.61,3.34,2.68,6.98,3.09,10.83.03.3.05.63.08.96.08.88.11,1.75.11,2.63Z"/>
  <path class="cls-21" d="M74.2,63.94l2.19-.69c.82-.26.67-1.46-.19-1.51l-2.3-.12c-.69-.04-.98-.91-.43-1.35l1.79-1.44c.67-.54.09-1.6-.72-1.33l-2.18.72c-.66.22-1.24-.5-.89-1.1l1.15-1.99c.43-.74-.49-1.53-1.16-.98l-1.78,1.46c-.54.44-1.34-.02-1.23-.7l.36-2.27c.13-.85-1.01-1.25-1.43-.5l-1.13,2c-.34.61-1.25.47-1.4-.21l-.49-2.25c-.18-.84-1.39-.8-1.52.05l-.33,2.27c-.1.69-1,.89-1.38.31l-1.27-1.92c-.47-.72-1.59-.24-1.4.6l.51,2.24c.16.68-.61,1.19-1.18.79l-1.87-1.33c-.7-.5-1.57.35-1.09,1.06l1.01,1.49c.49.72-.17,1.66-1.02,1.45l-1.74-.44c-.83-.21-1.34.89-.63,1.38l1.89,1.31c.57.4.35,1.29-.34,1.37l-2.28.28c-.85.1-.92,1.31-.09,1.52l2.23.54c.68.16.79,1.08.18,1.4l-2.03,1.08c-.76.4-.39,1.56.47,1.44l2.28-.3c.69-.09,1.13.72.67,1.24l-1.5,1.74c-.56.65.2,1.59.96,1.18l2.01-1.11c.61-.34,1.31.26,1.08.92l-.77,2.17c-.29.81.77,1.41,1.32.75l1.48-1.76c.45-.53,1.32-.23,1.34.47l.07,2.3c.02.86,1.22,1.04,1.5.23l.74-2.18c.22-.66,1.14-.69,1.41-.05l.89,2.12c.33.79,1.52.53,1.48-.33l-.09-2.3c-.03-.7.82-1.06,1.3-.56l1.6,1.65c.6.62,1.6-.06,1.26-.84l-.92-2.11c-.28-.64.38-1.28,1.01-.99l2.09.97c.78.36,1.48-.63.87-1.24l-1.62-1.63c-.49-.49-.11-1.33.59-1.29l2.29.15c.86.05,1.15-1.12.36-1.47l-2.1-.94c-.63-.28-.58-1.2.08-1.41ZM72.56,65.16l1.77.79c.66.3.42,1.29-.31,1.24l-1.94-.12c-.59-.04-.91.67-.49,1.09l1.36,1.38c.51.52-.08,1.35-.74,1.05l-1.76-.81c-.53-.25-1.09.3-.85.83l.77,1.78c.29.66-.56,1.23-1.06.71l-1.35-1.4c-.41-.42-1.12-.12-1.1.47l.08,1.94c.03.72-.97.95-1.25.28l-.75-1.79c-.23-.54-1-.51-1.19.04l-.63,1.84c-.23.69-1.25.53-1.27-.19l-.06-1.94c-.02-.59-.75-.84-1.13-.39l-1.25,1.49c-.47.56-1.35.05-1.11-.64l.65-1.83c.2-.55-.39-1.06-.91-.77l-1.7.93c-.64.35-1.28-.45-.81-.99l1.26-1.47c.38-.44.01-1.13-.57-1.05l-1.92.26c-.72.1-1.03-.88-.39-1.22l1.71-.91c.52-.28.42-1.05-.15-1.18l-1.89-.45c-.7-.17-.65-1.19.07-1.28l1.93-.23c.58-.07.77-.82.29-1.16l-1.59-1.1c-.6-.41-.17-1.34.53-1.17l1.47.37c.71.18,1.27-.61.86-1.22l-.85-1.26c-.41-.6.33-1.32.92-.9l1.58,1.12c.48.34,1.12-.09.99-.66l-.43-1.89c-.16-.71.78-1.11,1.18-.5l1.07,1.62c.32.49,1.08.32,1.16-.26l.28-1.92c.1-.72,1.13-.75,1.28-.04l.41,1.9c.12.57.89.69,1.18.18l.95-1.69c.36-.63,1.32-.3,1.21.42l-.3,1.92c-.09.58.58.97,1.04.59l1.5-1.23c.56-.46,1.34.2.98.83l-.97,1.68c-.29.51.19,1.11.75.93l1.84-.61c.69-.23,1.18.67.61,1.13l-1.51,1.21c-.46.37-.22,1.11.37,1.14l1.94.1c.72.04.85,1.05.16,1.27l-1.85.58c-.56.18-.6.95-.07,1.19Z"/>
  <path class="cls-24" d="M73.11,63.95l1.96-.62c.73-.23.59-1.31-.17-1.35l-2.05-.11c-.62-.03-.87-.81-.39-1.2l1.6-1.28c.6-.48.08-1.43-.65-1.19l-1.95.64c-.59.19-1.11-.44-.8-.98l1.03-1.78c.39-.66-.44-1.37-1.03-.88l-1.59,1.3c-.48.39-1.19-.01-1.1-.63l.32-2.03c.12-.76-.9-1.11-1.28-.45l-1.01,1.79c-.31.54-1.12.42-1.25-.19l-.43-2.01c-.16-.75-1.24-.71-1.36.05l-.29,2.03c-.09.62-.89.79-1.23.28l-1.13-1.71c-.42-.64-1.42-.21-1.25.53l.46,2c.14.61-.54,1.06-1.05.7l-1.67-1.19c-.63-.44-1.4.31-.97.95l.9,1.33c.44.64-.16,1.49-.91,1.3l-1.56-.39c-.74-.19-1.19.8-.56,1.23l1.69,1.17c.51.35.31,1.15-.3,1.23l-2.04.25c-.76.09-.82,1.17-.08,1.35l2,.48c.6.15.71.96.16,1.25l-1.81.97c-.68.36-.34,1.39.42,1.29l2.04-.27c.62-.08,1.01.64.6,1.11l-1.34,1.56c-.5.58.18,1.42.85,1.05l1.8-.99c.54-.3,1.17.23.96.82l-.69,1.94c-.26.72.68,1.26,1.18.67l1.32-1.57c.4-.48,1.18-.21,1.19.42l.06,2.05c.02.77,1.09.93,1.34.2l.66-1.94c.2-.59,1.02-.62,1.26-.04l.8,1.89c.3.71,1.35.47,1.32-.3l-.08-2.05c-.03-.62.73-.94,1.16-.5l1.43,1.48c.53.55,1.43-.05,1.13-.75l-.82-1.88c-.25-.57.34-1.14.9-.88l1.86.86c.7.32,1.32-.56.78-1.11l-1.44-1.46c-.44-.44-.1-1.19.52-1.15l2.05.13c.77.05,1.03-1,.33-1.32l-1.87-.84c-.57-.25-.52-1.07.07-1.26ZM71.64,65.04l1.58.71c.59.26.37,1.15-.27,1.11l-1.73-.11c-.52-.03-.81.6-.44.97l1.22,1.23c.46.46-.07,1.21-.66.94l-1.57-.73c-.48-.22-.97.26-.76.75l.69,1.59c.26.59-.5,1.1-.95.64l-1.2-1.25c-.36-.38-1-.1-.98.42l.07,1.73c.03.65-.87.85-1.12.25l-.67-1.6c-.2-.48-.9-.46-1.07.04l-.56,1.64c-.21.61-1.11.48-1.13-.17l-.05-1.73c-.02-.52-.67-.75-1.01-.35l-1.11,1.33c-.42.5-1.21.04-.99-.57l.58-1.63c.18-.49-.35-.94-.81-.69l-1.52.83c-.57.31-1.14-.4-.72-.89l1.13-1.31c.34-.4.01-1.01-.51-.94l-1.72.23c-.64.09-.92-.78-.35-1.09l1.53-.82c.46-.25.37-.93-.14-1.06l-1.68-.41c-.63-.15-.58-1.06.07-1.14l1.72-.21c.52-.06.69-.74.26-1.03l-1.42-.99c-.53-.37-.15-1.2.47-1.04l1.31.33c.64.16,1.14-.55.77-1.09l-.76-1.12c-.36-.54.29-1.17.82-.8l1.41,1c.43.3,1-.08.89-.59l-.39-1.69c-.14-.63.7-.99,1.05-.45l.95,1.45c.29.44.97.29,1.04-.23l.25-1.71c.09-.64,1.01-.67,1.14-.04l.37,1.69c.11.51.8.62,1.05.16l.85-1.51c.32-.56,1.18-.26,1.08.38l-.27,1.71c-.08.52.52.86.93.53l1.34-1.1c.5-.41,1.2.18.87.74l-.87,1.5c-.26.45.17.99.67.83l1.65-.54c.62-.2,1.05.6.55,1.01l-1.35,1.08c-.41.33-.2.99.33,1.01l1.73.09c.65.03.76.94.14,1.13l-1.65.52c-.5.16-.54.85-.06,1.06Z"/>
  <path class="cls-21" d="M72.39,63.95l1.8-.57c.67-.21.55-1.2-.16-1.24l-1.89-.1c-.57-.03-.8-.75-.36-1.11l1.48-1.18c.55-.44.08-1.32-.59-1.1l-1.8.59c-.54.18-1.02-.41-.73-.9l.95-1.63c.35-.61-.4-1.26-.95-.81l-1.46,1.2c-.44.36-1.1-.01-1.01-.58l.29-1.87c.11-.7-.83-1.03-1.18-.41l-.93,1.65c-.28.5-1.03.39-1.15-.17l-.4-1.85c-.15-.69-1.15-.66-1.25.04l-.27,1.87c-.08.57-.82.73-1.14.25l-1.04-1.58c-.39-.59-1.31-.2-1.15.49l.42,1.84c.13.56-.5.98-.97.65l-1.54-1.1c-.58-.41-1.29.29-.89.87l.83,1.22c.4.59-.14,1.37-.84,1.19l-1.43-.36c-.68-.17-1.1.73-.52,1.14l1.55,1.08c.47.33.29,1.06-.28,1.13l-1.88.23c-.7.09-.76,1.08-.07,1.25l1.84.44c.56.13.65.88.15,1.15l-1.67.89c-.62.33-.32,1.28.38,1.19l1.87-.25c.57-.08.93.59.55,1.02l-1.23,1.43c-.46.54.17,1.31.79.97l1.66-.91c.5-.28,1.08.21.89.75l-.63,1.78c-.24.67.63,1.16,1.08.62l1.22-1.45c.37-.44,1.08-.19,1.1.38l.05,1.89c.02.71,1.01.86,1.23.19l.61-1.79c.18-.54.94-.57,1.16-.04l.73,1.74c.27.65,1.25.43,1.22-.27l-.08-1.89c-.02-.57.67-.87,1.07-.46l1.31,1.36c.49.51,1.32-.05,1.04-.69l-.75-1.73c-.23-.52.31-1.05.83-.81l1.72.79c.64.3,1.21-.52.72-1.02l-1.33-1.34c-.4-.41-.09-1.1.48-1.06l1.89.12c.71.05.94-.92.3-1.21l-1.72-.77c-.52-.23-.48-.99.07-1.16ZM71.04,64.96l1.46.65c.54.24.34,1.06-.25,1.02l-1.59-.1c-.48-.03-.75.55-.41.89l1.12,1.13c.42.42-.06,1.11-.61.86l-1.45-.67c-.44-.2-.89.24-.7.69l.64,1.46c.24.55-.46,1.01-.88.58l-1.11-1.15c-.34-.35-.92-.1-.9.39l.06,1.59c.02.6-.8.78-1.03.23l-.62-1.47c-.19-.44-.82-.42-.98.03l-.52,1.51c-.19.56-1.02.44-1.04-.16l-.05-1.59c-.01-.48-.62-.69-.93-.32l-1.03,1.22c-.38.46-1.11.04-.91-.52l.53-1.5c.16-.45-.32-.87-.75-.64l-1.4.77c-.52.29-1.05-.37-.66-.82l1.04-1.21c.31-.37.01-.93-.47-.86l-1.58.21c-.59.08-.85-.72-.32-1l1.41-.75c.43-.23.34-.86-.12-.97l-1.55-.37c-.58-.14-.53-.98.06-1.05l1.58-.19c.48-.06.63-.68.24-.95l-1.31-.91c-.49-.34-.14-1.1.44-.96l1.21.31c.59.15,1.04-.51.71-1.01l-.7-1.03c-.33-.49.27-1.08.75-.74l1.3.92c.39.28.92-.07.82-.55l-.36-1.55c-.13-.58.64-.91.97-.41l.88,1.33c.27.4.89.26.96-.21l.23-1.58c.09-.59.93-.62,1.05-.04l.34,1.56c.1.47.73.57.97.15l.78-1.39c.29-.52,1.09-.24.99.35l-.25,1.58c-.08.48.48.79.85.49l1.23-1.01c.46-.38,1.1.17.8.68l-.8,1.38c-.24.42.16.91.62.76l1.51-.5c.57-.19.97.55.5.93l-1.24,1c-.38.3-.18.91.3.93l1.59.08c.6.03.7.87.13,1.04l-1.52.48c-.46.15-.5.78-.06.98Z"/>
  <path d="M71.22,63.96l1.55-.49c.58-.18.47-1.03-.14-1.07l-1.62-.08c-.49-.03-.69-.65-.31-.95l1.27-1.02c.47-.38.07-1.13-.51-.94l-1.55.51c-.47.15-.88-.35-.63-.78l.82-1.41c.31-.53-.35-1.08-.82-.7l-1.26,1.03c-.38.31-.95-.01-.87-.5l.25-1.61c.09-.6-.72-.88-1.01-.35l-.8,1.42c-.24.43-.89.33-.99-.15l-.34-1.59c-.13-.59-.99-.56-1.07.04l-.23,1.61c-.07.49-.71.63-.98.22l-.9-1.36c-.33-.51-1.12-.17-.99.42l.36,1.59c.11.48-.43.84-.83.56l-1.33-.94c-.5-.35-1.11.25-.77.75l.71,1.05c.35.51-.12,1.18-.72,1.03l-1.23-.31c-.59-.15-.94.63-.45.98l1.34.93c.4.28.25.91-.24.97l-1.61.2c-.6.07-.65.93-.06,1.07l1.58.38c.48.12.56.76.13.99l-1.43.77c-.54.29-.27,1.1.33,1.02l1.61-.22c.49-.07.8.51.48.88l-1.06,1.23c-.4.46.14,1.13.68.83l1.43-.78c.43-.24.93.18.76.65l-.54,1.53c-.2.57.54,1,.93.53l1.05-1.25c.32-.38.93-.16.95.33l.05,1.63c.02.61.87.74,1.06.16l.53-1.54c.16-.47.81-.49,1-.03l.63,1.5c.24.56,1.07.37,1.05-.23l-.07-1.63c-.02-.49.58-.75.92-.39l1.13,1.17c.42.44,1.14-.04.89-.6l-.65-1.49c-.2-.45.27-.91.72-.7l1.48.68c.55.26,1.04-.45.62-.88l-1.14-1.16c-.35-.35-.08-.94.41-.91l1.62.1c.61.04.81-.79.26-1.04l-1.48-.67c-.45-.2-.41-.85.06-1ZM70.06,64.82l1.25.56c.47.21.29.91-.22.88l-1.37-.09c-.41-.03-.64.47-.35.77l.96.98c.36.36-.06.96-.52.74l-1.25-.58c-.38-.17-.77.21-.6.59l.55,1.26c.2.47-.4.87-.75.5l-.95-.99c-.29-.3-.79-.08-.78.33l.06,1.37c.02.51-.69.67-.88.2l-.53-1.26c-.16-.38-.71-.36-.84.03l-.44,1.3c-.17.49-.88.38-.9-.14l-.04-1.37c-.01-.42-.53-.6-.8-.28l-.88,1.05c-.33.39-.96.03-.79-.45l.46-1.29c.14-.39-.28-.75-.64-.55l-1.2.66c-.45.25-.91-.32-.57-.7l.9-1.04c.27-.31,0-.8-.4-.74l-1.36.18c-.51.07-.73-.62-.28-.86l1.21-.65c.37-.2.3-.74-.11-.84l-1.33-.32c-.5-.12-.46-.84.05-.9l1.36-.17c.41-.05.54-.58.2-.82l-1.13-.78c-.42-.29-.12-.95.38-.82l1.04.26c.5.13.9-.43.61-.87l-.6-.89c-.29-.42.23-.93.65-.63l1.12.8c.34.24.8-.06.7-.47l-.31-1.34c-.11-.5.55-.78.83-.36l.76,1.15c.23.35.76.23.82-.18l.2-1.36c.07-.51.8-.53.91-.03l.29,1.34c.09.41.63.49.84.13l.67-1.2c.25-.45.94-.21.86.3l-.21,1.36c-.06.41.41.68.73.42l1.06-.87c.4-.33.95.14.69.59l-.69,1.19c-.21.36.14.79.53.66l1.3-.43c.49-.16.83.48.43.8l-1.07.86c-.32.26-.16.78.26.8l1.37.07c.51.03.6.74.11.9l-1.31.41c-.4.13-.43.67-.05.84Z"/>
  <polygon class="cls-8" points="73.2 64 70.82 70.18 64 73.2 57.16 70.16 54.8 64 57.7 57.29 64 54.8 70.51 57.49 73.2 64"/>
  <circle class="cls-5" cx="64" cy="64" r="8.34"/>
  <circle cx="64" cy="64" r="7.83"/>
  <circle cx="64" cy="64" r="7.29"/>
  <g>
    <circle cx="40.42" cy="38.23" r="1.05" transform="translate(1.89 78.37) rotate(-89.58)"/>
    <circle cx="32.75" cy="47.46" r="1.05" transform="translate(-14.95 79.86) rotate(-89.58)"/>
    <circle cx="28.89" cy="60.52" r="1.05" transform="translate(-31.84 88.96) rotate(-89.58)"/>
    <circle cx="29.85" cy="73.36" r="1.05" transform="translate(-43.73 102.67) rotate(-89.58)"/>
    <circle cx="35.21" cy="84.66" r="1.05" transform="translate(-49.7 119.24) rotate(-89.58)"/>
    <circle cx="45.1" cy="93.81" r="1.05" transform="translate(-49.04 138.23) rotate(-89.58)"/>
    <circle cx="57.05" cy="98.74" r="1.05" transform="translate(-42.1 155.07) rotate(-89.58)"/>
    <circle cx="70.3" cy="98.84" r="1.05" transform="translate(-29.05 168.41) rotate(-89.58)"/>
    <circle cx="82.39" cy="94.51" r="1.05" transform="translate(-12.72 176.21) rotate(-89.58)"/>
    <circle cx="92.22" cy="86.01" r="1.05" transform="translate(5.54 177.61) rotate(-89.58)"/>
    <circle cx="98.3" cy="74.19" r="1.05" transform="translate(23.39 171.94) rotate(-89.58)"/>
    <circle cx="99.11" cy="61.22" r="1.05" transform="translate(37.17 159.88) rotate(-89.58)"/>
    <circle cx="95.97" cy="48.54" r="1.05" transform="translate(46.73 144.15) rotate(-89.58)"/>
    <circle cx="87.69" cy="37.93" r="1.05" transform="translate(49.12 125.34) rotate(-89.58)"/>
    <circle cx="76.7" cy="31.06" r="1.05" transform="translate(45.09 107.53) rotate(-89.58)"/>
    <circle cx="64.19" cy="29.16" r="1.05" transform="translate(34.56 93.14) rotate(-89.58)"/>
    <circle cx="51.76" cy="31.4" r="1.05" transform="translate(19.98 82.93) rotate(-89.58)"/>
  </g>
  <g>
    <circle class="cls-19" cx="40.25" cy="38.43" r="1.05"/>
    <circle class="cls-19" cx="32.65" cy="47.71" r="1.05"/>
    <circle class="cls-19" cx="28.89" cy="60.8" r="1.05"/>
    <circle class="cls-19" cx="29.94" cy="73.64" r="1.05"/>
    <circle class="cls-19" cx="35.38" cy="84.89" r="1.05"/>
    <circle class="cls-19" cx="45.34" cy="93.97" r="1.05"/>
    <circle class="cls-19" cx="57.33" cy="98.81" r="1.05"/>
    <circle class="cls-19" cx="70.57" cy="98.81" r="1.05"/>
    <circle class="cls-19" cx="82.64" cy="94.4" r="1.05"/>
    <circle class="cls-19" cx="92.41" cy="85.83" r="1.05"/>
    <circle class="cls-19" cx="98.39" cy="73.96" r="1.05"/>
    <circle class="cls-19" cx="99.11" cy="60.99" r="1.05"/>
    <circle class="cls-19" cx="95.88" cy="48.33" r="1.05"/>
    <circle class="cls-19" cx="87.52" cy="37.78" r="1.05"/>
    <circle class="cls-19" cx="76.49" cy="30.99" r="1.05"/>
    <circle class="cls-19" cx="63.96" cy="29.19" r="1.05"/>
    <circle class="cls-19" cx="51.54" cy="31.51" r="1.05"/>
  </g>
  <path class="cls-10" d="M96.9,60.77c-.14-.27-.41-.46-.78-.49l-11.11-.97c-.95-.08-1.3-1.3-.51-1.87l8.92-6.68c.27-.19.41-.43.43-.7v-.03c-.16-.32-.32-.65-.51-.97-.22-.14-.51-.19-.84-.11l-10.71,3.11c-.92.27-1.68-.76-1.16-1.54l5.92-9.46c.16-.24.19-.51.14-.73-.08-.46-.49-.84-.97-.87-.22-.03-.46.05-.68.22l-8.84,6.79c-.76.57-1.84-.08-1.65-1.03l2.11-10.95c.05-.22.03-.43-.05-.62-.22-.51-.87-.76-1.38-.51-.19.05-.35.19-.49.41l-5.81,9.52c-.49.81-1.73.57-1.89-.38l-2-10.95c-.03-.19-.11-.35-.22-.46-.38-.54-1.22-.54-1.6,0-.11.11-.19.27-.22.46l-2,10.95c-.16.95-1.41,1.19-1.89.38l-5.81-9.52c-.08-.14-.19-.24-.32-.3-.6-.43-1.43-.11-1.57.59-.05.14-.05.27-.03.43l2.11,10.95c.19.95-.89,1.6-1.65,1.03l-8.84-6.79c-.11-.08-.19-.14-.3-.16-.76-.27-1.54.46-1.32,1.22,0,.11.05.22.11.32l5.92,9.46c.51.78-.24,1.81-1.16,1.54l-10.71-3.11c-.11-.03-.22-.05-.32-.05-.84,0-1.32,1.03-.81,1.65.05.08.14.16.22.22l8.92,6.68c.78.57.43,1.78-.51,1.87l-11.11.97c-.11,0-.22.03-.3.08-.78.27-.89,1.41-.16,1.81.08.08.16.11.27.14l10.74,2.97c.92.27,1.05,1.51.19,1.95l-10.01,4.92c-.11.05-.22.11-.3.19-.57.57-.27,1.6.51,1.73.11.03.22.05.32.03l11.11-1.08c.95-.11,1.51,1.03.87,1.73l-7.57,8.19c-.08.11-.16.22-.19.32-.32.7.3,1.51,1.05,1.43.14-.03.24-.05.38-.11l9.95-5.03c.84-.43,1.78.41,1.43,1.3l-4.08,10.38c-.05.16-.08.32-.08.46.46.32.95.62,1.43.89.14-.05.27-.14.38-.27l7.46-8.3c.65-.7,1.81-.24,1.81.7l-.05,11.17c0,.22.05.41.16.54.27.51,1.03.65,1.49.27.16-.11.27-.24.35-.46l3.98-10.41c.32-.89,1.6-.89,1.92,0l3.98,10.41c.08.24.24.43.46.54.43.24,1.03.14,1.33-.24.16-.16.24-.38.24-.65l-.08-11.17c0-.95,1.16-1.41,1.81-.7l7.46,8.3c.19.22.46.32.7.35.43,0,.87-.24,1.03-.65.11-.22.11-.49,0-.78l-4.08-10.38c-.35-.89.59-1.73,1.43-1.3l9.95,5.03c.3.16.59.14.87.03h.03c.3-.14.51-.43.57-.76.11-.3.05-.62-.22-.92l-7.57-8.19c-.65-.7-.08-1.84.87-1.73l11.11,1.08c.35.05.65-.08.84-.32h.03c.22-.24.3-.59.24-.89-.05-.3-.24-.57-.57-.73l-10.01-4.92c-.87-.43-.73-1.68.19-1.95l10.74-2.97c.35-.08.57-.32.68-.6.14-.32.11-.68-.08-.95ZM81.28,53.18l7.12-2.07c.28-.07.53-.02.72.09.16.28.3.56.44.83v.02c-.02.23-.14.44-.37.6l-6.48,4.85s-.02,0-.03,0l-4.11.94s-.1.02-.15.02c-1,.05-1.58-1.16-.89-1.91l1.72-2.05c.53-.64,1.24-1.1,2.04-1.33ZM67.45,73.45l.09,2.16c.03.81-1.08,1.05-1.39.31l-.84-1.99c-.25-.6-1.12-.57-1.33.05l-.7,2.04c-.26.76-1.39.59-1.41-.21l-.06-2.16c-.02-.65-.84-.94-1.26-.44l-1.39,1.65c-.52.62-1.51.05-1.24-.71l.72-2.04c.22-.62-.44-1.18-1.01-.86l-1.89,1.04c-.71.39-1.43-.5-.9-1.11l1.41-1.64c.43-.5.01-1.26-.63-1.17l-2.14.29c-.8.11-1.15-.98-.44-1.36l1.91-1.02c.58-.31.47-1.17-.17-1.32l-2.1-.51c-.78-.19-.72-1.33.08-1.42l2.14-.26c.65-.08.86-.92.32-1.29l-1.78-1.23c-.66-.46-.19-1.5.59-1.3l1.64.42c.79.2,1.42-.68.96-1.36l-.95-1.4c-.45-.67.36-1.46,1.02-1l1.76,1.25c.53.38,1.25-.1,1.11-.74l-.48-2.11c-.18-.79.87-1.24,1.31-.56l1.19,1.8c.36.55,1.2.36,1.3-.29l.31-2.14c.12-.8,1.25-.84,1.43-.05l.46,2.11c.14.64.99.77,1.31.2l1.06-1.88c.4-.7,1.47-.33,1.35.47l-.34,2.13c-.1.65.65,1.08,1.15.66l1.67-1.37c.62-.51,1.49.23,1.09.92l-1.08,1.87c-.33.57.22,1.24.84,1.03l2.05-.68c.77-.25,1.31.75.68,1.25l-1.69,1.35c-.51.41-.25,1.23.41,1.27l2.16.11c.81.04.95,1.17.18,1.42l-2.06.65c-.62.2-.67,1.06-.08,1.33l1.97.88c.74.33.46,1.44-.34,1.38l-2.16-.14c-.65-.04-1.01.74-.55,1.21l1.52,1.54c.57.57-.09,1.51-.82,1.17l-1.96-.91c-.59-.27-1.21.33-.95.93l.86,1.98c.32.74-.63,1.37-1.19.79l-1.5-1.55c-.45-.47-1.25-.13-1.22.52ZM58.09,52s0,.06.01.09l.57,2.5c.17.76-.68,1.32-1.31.88l-1.06-.75c0-.13-.02-.26-.07-.39l-1.09-2.72c-.41-1.02.9-1.84,1.64-1.03l1.3,1.43ZM54.04,55.12s.01.03.03.05l1.12,1.66-1.13,1.62-1.04-.26c-.02-.25-.12-.49-.32-.7l-1.56-1.67c-.75-.8.18-2.04,1.16-1.55l1.75.87ZM51.41,59.47s0,0,.01,0l2.1,1.46c.64.44.39,1.44-.38,1.53l-1.32.16c-.08-.08-.17-.15-.28-.2l-2.64-1.28c-.99-.48-.57-1.97.52-1.87l1.99.18ZM50.52,64.47l2.47.6c.75.18.88,1.2.2,1.56l-1.2.64c-.1-.04-.2-.07-.32-.08l-2.92-.24c-1.09-.09-1.24-1.63-.19-1.93l1.96-.56ZM51.5,69.44l2.49-.33c.77-.1,1.26.8.75,1.39l-.9,1.05c-.1,0-.21,0-.31.04l-2.81.84c-1.05.31-1.75-1.07-.87-1.73l1.66-1.25ZM54.19,73.72l2.19-1.21c.68-.37,1.46.29,1.2,1.02l-.47,1.32c-.09.03-.19.08-.28.15l-2.32,1.79c-.87.67-2.02-.36-1.44-1.3l1.11-1.79ZM76.14,57.08s-.1.02-.15.03l-2.43.8c-.74.24-1.38-.55-.99-1.22l.66-1.14c.14,0,.29-.03.44-.11l2.61-1.34c.98-.5,1.91.73,1.18,1.54l-1.31,1.44ZM73.39,51.5l-.7,1.8s-.09.05-.13.09l-1.98,1.62c-.6.49-1.49-.02-1.37-.78l.2-1.29c.13-.05.26-.14.37-.26l1.95-2.19c.73-.82,2.05-.01,1.65,1.01ZM72.66,75.42s0-.02-.01-.03l-1.02-2.35c-.31-.71.42-1.43,1.13-1.1l1.28.59c.02.12.06.24.14.36l1.57,2.47c.59.92-.55,1.97-1.42,1.31l-1.67-1.26ZM76.09,71.69s-.03-.04-.05-.06l-1.8-1.82c-.54-.55-.12-1.48.65-1.43l1.39.09c.06.11.15.22.27.31l2.36,1.74c.88.65.2,2.04-.85,1.74l-1.98-.56ZM77.95,66.95s-.06-.04-.09-.05l-2.34-1.05c-.71-.32-.65-1.34.09-1.57l1.31-.41c.1.09.23.16.38.2l2.83.77c1.06.29.92,1.83-.17,1.93l-2.01.19ZM77.98,61.85s-.09-.02-.13-.02l-2.56-.13c-.77-.04-1.09-1.02-.48-1.5l1.05-.84c.13.05.28.07.44.05l2.92-.31c1.09-.11,1.52,1.37.54,1.86l-1.78.88ZM75.09,48.47l6.91-5.31c.19-.14.39-.21.58-.19.42.02.76.35.83.74.05.19.02.42-.12.63l-4.38,7-3.54,2.41c-.94.48-1.97-.45-1.59-1.43l1.3-3.85ZM69.1,44.77l4.08-6.68c.12-.19.25-.3.42-.35.44-.21,1,0,1.18.44.07.16.09.35.05.53l-1.46,7.58c-.07.39-.23.76-.45,1.08l-2.14,3.11c-.7.79-2,.29-2-.76l-.09-3.38c-.02-.55.13-1.1.42-1.57ZM68.1,49.1v1.92s-.06.08-.08.12l-1.26,2.23c-.38.67-1.39.52-1.56-.24l-.27-1.26c.1-.1.18-.22.24-.37l1.03-2.75c.38-1.03,1.91-.75,1.91.34ZM61.72,44.26l1.41-7.72c.02-.16.09-.3.19-.39.32-.46,1.04-.46,1.37,0,.09.09.16.23.19.39l1.53,8.37h0s-1.1,4.18-1.1,4.18c-.37.99-1.76.99-2.14.01l-1.28-3.21c-.21-.52-.26-1.09-.16-1.64ZM62.31,48.78l.69,1.79s-.02.08-.03.12l-.37,2.53c-.11.77-1.11.99-1.54.34l-.71-1.08c.05-.12.09-.26.08-.41l-.04-2.93c-.01-1.1,1.51-1.39,1.9-.37ZM53.17,38.72c-.02-.14-.02-.25.02-.37.12-.6.83-.88,1.34-.51.12.05.21.14.28.25l4.4,7.2h0s.48,4.48.48,4.48c.01,1.05-1.28,1.56-1.99.78l-1.73-1.86c-.73-.78-1.22-1.75-1.42-2.8l-1.38-7.19ZM44.7,44.35c-.05-.09-.09-.19-.09-.28-.19-.65.49-1.27,1.13-1.04.09.02.16.07.25.14l6.19,5.04c.29.23.52.52.7.85.55,1.04,1.83,3.39,1.83,3.39.39.98-.63,1.92-1.57,1.45l-3.76-2.07s0,0-.01,0l-4.67-7.47ZM38.81,52.66c-.07-.05-.14-.12-.19-.19-.44-.53-.02-1.41.69-1.41.09,0,.19.02.28.05l8.08,2.35c.12.04.24.11.33.2h0s2.51,2.51,2.51,2.51c.9.96.13,2.53-1.18,2.4l-3.05-.32-7.47-5.59ZM36.34,62.55c-.09-.02-.16-.05-.23-.12-.63-.35-.53-1.32.14-1.55.07-.05.16-.07.25-.07l7.52-.66c.57-.05,1.14.06,1.65.3h0s3.48,1.58,3.48,1.58c.95.46.83,1.84-.18,2.13l-3.42.64c-.41.08-.83.06-1.23-.05l-7.97-2.21ZM37.59,72.65c-.09.02-.19,0-.28-.02-.67-.12-.93-1-.44-1.48.07-.07.16-.12.25-.16l7.44-3.66c.18-.09.38-.13.58-.11h0s4.17.47,4.17.47c1.05.08,1.44,1.42.6,2.05l-3.25,1.93c-.12.07-.26.12-.41.13l-8.66.84ZM50.21,77.7l-7.78,3.93c-.12.05-.21.07-.32.09-.65.07-1.18-.63-.9-1.23.02-.09.09-.19.16-.28l5.59-6.05c.13-.14.3-.25.48-.3h0s4.06-.98,4.06-.98c1.01-.3,1.85.8,1.3,1.7l-2.27,2.85c-.09.11-.19.2-.32.26ZM57.25,78.07l-.78,3.05c-.03.11-.08.21-.16.3l-6.15,6.84c-.09.12-.21.19-.32.23-.42-.23-.83-.49-1.23-.76,0-.12.02-.25.07-.39l3.01-7.65c.05-.14.14-.26.26-.35h0s3.47-2.38,3.47-2.38c.83-.64,2.02.08,1.83,1.12ZM57.84,78.83l.39-2.09,1.61-1.92c.5-.59,1.47-.26,1.49.52l.04,1.42c-.08.07-.15.15-.21.25l-1.51,2.51c-.57.94-2.01.39-1.81-.69ZM62.93,83.35l-3.16,8.27c-.07.19-.16.3-.3.39-.39.32-1.04.21-1.27-.23-.09-.12-.14-.28-.14-.46l.04-7.46c0-.39.11-.77.31-1.11h0s2.14-3.42,2.14-3.42c.54-.9,1.91-.65,2.1.38l.38,2.72c.04.31,0,.63-.1.92ZM63.47,80.21l-.39-2.09.82-2.39c.25-.73,1.27-.77,1.58-.05l.55,1.32c-.05.09-.09.2-.11.32l-.5,2.89c-.19,1.08-1.73,1.09-1.94.01ZM69.76,91.87c-.25.32-.76.42-1.14.21-.19-.09-.32-.25-.39-.46l-2.62-6.86c-.14-.35-.17-.74-.11-1.11h0s.68-3.96.68-3.96c.18-1.04,1.55-1.3,2.1-.41l1.39,2.46c.15.27.23.57.23.87l.06,8.7c0,.23-.07.42-.21.56ZM69.23,79.46l-1.11-1.8-.1-2.56c-.03-.77.91-1.18,1.45-.62l.99,1.03c-.02.11-.02.23,0,.36l.57,2.88c.21,1.07-1.22,1.64-1.8.71ZM79.32,87.33c.09.25.09.49,0,.67-.14.35-.51.56-.88.56-.21-.02-.44-.12-.6-.3l-5.14-5.72c-.12-.13-.2-.29-.23-.46h0s-.9-4.1-.9-4.1c-.21-1.03.97-1.77,1.81-1.14l2.36,1.73c.13.09.23.22.28.37l3.3,8.39ZM86.64,80.22c.23.25.28.53.19.79-.05.28-.23.53-.49.65h-.02c-.23.09-.49.12-.74-.02l-6.52-3.29c-.3-.15-.55-.38-.73-.66h0s-2.35-3.23-2.35-3.23c-.56-.89.27-2,1.28-1.71l2.71.66c.31.07.59.24.8.47l5.88,6.36ZM90.88,70.98c.28.14.44.37.49.63.05.25-.02.56-.21.76h-.02c-.16.21-.42.32-.72.28l-7.43-.72c-.27-.03-.52-.12-.74-.28h0s-3.43-2.07-3.43-2.07c-.85-.62-.47-1.96.57-2.06l2.84-.37c.43-.06.87.02,1.26.21l7.39,3.64ZM92.25,62.04c-.09.23-.28.44-.58.51l-7.73,2.14s-.05-.02-.08-.03l-4.18-.67c-1.02-.28-1.15-1.66-.21-2.13l2.29-1.28c.63-.35,1.35-.5,2.06-.44l7.68.67c.32.02.56.19.67.42.16.23.19.53.07.81Z"/>
  <path class="cls-25" d="M95.71,60.88c-.13-.26-.39-.44-.76-.47l-10.71-.94c-.91-.08-1.25-1.25-.5-1.8l8.6-6.44c.26-.18.39-.42.42-.68v-.03c-.16-.31-.31-.63-.5-.94-.21-.13-.5-.18-.81-.1l-10.32,3c-.89.26-1.62-.73-1.12-1.49l5.71-9.12c.16-.23.18-.5.13-.7-.08-.44-.47-.81-.94-.83-.21-.03-.44.05-.65.21l-8.52,6.54c-.73.55-1.77-.08-1.59-.99l2.03-10.56c.05-.21.03-.42-.05-.6-.21-.5-.83-.73-1.33-.5-.18.05-.34.18-.47.39l-5.6,9.18c-.47.78-1.67.55-1.82-.36l-1.93-10.56c-.03-.18-.1-.34-.21-.44-.36-.52-1.17-.52-1.54,0-.1.1-.18.26-.21.44l-1.93,10.56c-.16.91-1.36,1.15-1.82.36l-5.6-9.18c-.08-.13-.18-.23-.31-.29-.57-.42-1.38-.1-1.51.57-.05.13-.05.26-.03.42l2.03,10.56c.18.91-.86,1.54-1.59.99l-8.52-6.54c-.1-.08-.18-.13-.29-.16-.73-.26-1.49.44-1.28,1.17,0,.1.05.21.1.31l5.71,9.12c.5.76-.23,1.75-1.12,1.49l-10.32-3c-.1-.03-.21-.05-.31-.05-.81,0-1.28.99-.78,1.59.05.08.13.16.21.21l8.6,6.44c.76.55.42,1.72-.5,1.8l-10.71.94c-.1,0-.21.03-.29.08-.76.26-.86,1.36-.16,1.75.08.08.16.1.26.13l10.35,2.87c.89.26,1.02,1.46.18,1.88l-9.64,4.74c-.1.05-.21.1-.29.18-.55.55-.26,1.54.5,1.67.1.03.21.05.31.03l10.71-1.04c.91-.1,1.46.99.83,1.67l-7.3,7.9c-.08.1-.16.21-.18.31-.31.68.29,1.46,1.02,1.38.13-.03.23-.05.36-.1l9.59-4.85c.81-.42,1.72.39,1.38,1.25l-3.94,10.01c-.05.16-.08.31-.08.44.44.31.91.6,1.38.86.13-.05.26-.13.36-.26l7.19-8c.63-.68,1.75-.23,1.75.68l-.05,10.77c0,.21.05.39.16.52.26.5.99.63,1.43.26.16-.1.26-.23.34-.44l3.83-10.04c.31-.86,1.54-.86,1.85,0l3.83,10.04c.08.23.23.42.44.52.42.23.99.13,1.28-.23.16-.16.23-.37.23-.63l-.08-10.77c0-.91,1.12-1.36,1.75-.68l7.19,8c.18.21.44.31.68.34.42,0,.83-.23.99-.63.1-.21.1-.47,0-.76l-3.94-10.01c-.34-.86.57-1.67,1.38-1.25l9.59,4.85c.29.16.57.13.83.03h.03c.29-.13.5-.42.55-.73.1-.29.05-.6-.21-.89l-7.3-7.9c-.63-.68-.08-1.77.83-1.67l10.71,1.04c.34.05.63-.08.81-.31h.03c.21-.23.29-.57.23-.86-.05-.29-.23-.55-.55-.7l-9.64-4.74c-.83-.42-.7-1.62.18-1.88l10.35-2.87c.34-.08.55-.31.65-.57.13-.31.1-.65-.08-.91ZM80.66,53.57l6.86-1.99c.27-.07.51-.02.69.09.16.27.29.54.42.8v.02c-.02.22-.13.42-.36.58l-6.25,4.67s-.02,0-.03,0l-3.97.91s-.09.02-.14.02c-.97.04-1.53-1.11-.86-1.85l1.66-1.98c.51-.61,1.2-1.06,1.97-1.28ZM67.32,73.11l.08,2.08c.03.78-1.04,1.02-1.34.3l-.81-1.92c-.24-.58-1.08-.55-1.28.04l-.67,1.97c-.25.74-1.34.57-1.36-.21l-.06-2.08c-.02-.63-.81-.9-1.21-.42l-1.34,1.59c-.5.6-1.45.05-1.19-.68l.7-1.96c.21-.59-.42-1.13-.98-.83l-1.82,1c-.68.38-1.37-.48-.87-1.07l1.36-1.58c.41-.48.01-1.21-.61-1.13l-2.06.28c-.77.1-1.11-.94-.42-1.31l1.84-.98c.56-.3.45-1.12-.16-1.27l-2.02-.49c-.76-.18-.69-1.28.08-1.37l2.07-.25c.63-.08.83-.88.31-1.24l-1.71-1.19c-.64-.44-.18-1.44.57-1.25l1.58.4c.76.19,1.36-.66.92-1.31l-.91-1.35c-.44-.64.35-1.41.98-.96l1.7,1.21c.51.37,1.21-.1,1.07-.71l-.47-2.03c-.17-.76.84-1.19,1.26-.54l1.15,1.74c.35.53,1.16.34,1.25-.28l.3-2.06c.11-.77,1.21-.81,1.37-.05l.44,2.03c.13.62.96.74,1.27.19l1.02-1.81c.38-.68,1.42-.32,1.3.45l-.32,2.06c-.1.62.63,1.04,1.11.64l1.61-1.32c.6-.49,1.44.22,1.05.89l-1.05,1.8c-.32.55.21,1.19.81,1l1.98-.65c.74-.24,1.26.72.66,1.21l-1.62,1.3c-.49.39-.24,1.19.39,1.22l2.08.11c.78.04.92,1.13.17,1.36l-1.99.63c-.6.19-.65,1.02-.07,1.28l1.9.85c.71.32.45,1.38-.33,1.33l-2.08-.13c-.63-.04-.97.72-.53,1.17l1.46,1.48c.55.55-.08,1.45-.79,1.13l-1.89-.87c-.57-.26-1.17.32-.92.9l.83,1.91c.31.71-.6,1.32-1.14.76l-1.45-1.5c-.44-.45-1.2-.13-1.18.5ZM58.3,52.44s0,.06.01.08l.55,2.41c.17.73-.65,1.28-1.26.84l-1.02-.72c0-.12-.02-.25-.07-.37l-1.05-2.62c-.39-.98.87-1.77,1.58-.99l1.26,1.38ZM54.4,55.44s.01.03.02.04l1.08,1.6-1.09,1.56-1-.25c-.02-.24-.12-.47-.31-.68l-1.51-1.61c-.72-.77.17-1.97,1.12-1.5l1.69.84ZM51.86,59.63s0,0,.01,0l2.03,1.41c.61.43.38,1.38-.36,1.47l-1.28.16c-.07-.08-.16-.14-.27-.19l-2.54-1.23c-.95-.46-.55-1.9.5-1.8l1.91.18ZM51.01,64.45l2.38.57c.73.18.85,1.15.19,1.51l-1.15.62c-.09-.04-.19-.07-.31-.08l-2.82-.23c-1.05-.08-1.2-1.57-.18-1.86l1.89-.54ZM51.95,69.24l2.4-.32c.74-.1,1.21.77.72,1.34l-.87,1.01c-.1,0-.2,0-.3.04l-2.71.81c-1.01.3-1.68-1.03-.84-1.67l1.6-1.21ZM54.54,73.37l2.11-1.16c.65-.36,1.41.28,1.16.98l-.45,1.28c-.09.03-.18.08-.27.15l-2.23,1.73c-.84.65-1.94-.35-1.39-1.25l1.07-1.73ZM75.7,57.33s-.09.02-.14.03l-2.34.77c-.71.23-1.33-.53-.96-1.18l.64-1.1c.14,0,.28-.03.42-.11l2.51-1.29c.94-.48,1.85.7,1.13,1.48l-1.27,1.39ZM73.05,51.95l-.67,1.73s-.08.05-.12.08l-1.91,1.57c-.58.47-1.43-.02-1.32-.75l.2-1.24c.13-.05.25-.13.35-.25l1.88-2.11c.7-.79,1.97-.01,1.59.97ZM72.34,75.01s0-.02-.01-.03l-.98-2.26c-.3-.69.41-1.38,1.09-1.06l1.24.57c.02.12.06.23.13.35l1.52,2.38c.57.89-.53,1.9-1.37,1.27l-1.61-1.21ZM75.66,71.41s-.03-.04-.04-.05l-1.74-1.75c-.53-.53-.12-1.43.63-1.38l1.34.09c.06.11.15.21.26.3l2.28,1.68c.85.63.19,1.96-.82,1.68l-1.91-.54ZM77.45,66.85s-.06-.04-.09-.05l-2.25-1.01c-.68-.31-.62-1.29.09-1.52l1.26-.4c.1.09.22.16.37.19l2.73.74c1.02.28.89,1.76-.16,1.86l-1.94.18ZM77.47,61.93s-.08-.02-.13-.02l-2.46-.13c-.75-.04-1.05-.98-.47-1.45l1.01-.81c.13.05.27.07.43.05l2.81-.29c1.05-.11,1.47,1.32.52,1.79l-1.71.85ZM74.69,49.03l6.66-5.12c.18-.13.38-.2.56-.18.4.02.74.33.8.71.04.18.02.4-.11.6l-4.22,6.75-3.42,2.32c-.9.46-1.9-.43-1.53-1.38l1.26-3.71ZM68.92,45.47l3.93-6.44c.11-.18.25-.29.4-.33.42-.2.96,0,1.14.42.07.16.09.33.04.51l-1.41,7.3c-.07.37-.22.73-.44,1.04l-2.06,2.99c-.67.76-1.93.28-1.93-.73l-.09-3.26c-.01-.53.13-1.06.4-1.52ZM67.96,49.64v1.85s-.05.07-.08.11l-1.21,2.15c-.37.65-1.34.5-1.5-.23l-.26-1.22c.1-.09.18-.21.23-.35l.99-2.65c.37-.99,1.84-.72,1.84.33ZM61.8,44.98l1.36-7.44c.02-.16.09-.29.18-.38.31-.45,1-.45,1.32,0,.09.09.16.22.18.38l1.47,8.07h0s-1.06,4.03-1.06,4.03c-.35.95-1.7.96-2.06.01l-1.23-3.09c-.2-.5-.25-1.05-.16-1.58ZM62.37,49.33l.67,1.72s-.02.07-.03.11l-.35,2.44c-.11.74-1.07.95-1.48.33l-.68-1.04c.05-.12.08-.25.08-.39l-.03-2.83c-.01-1.06,1.45-1.34,1.83-.35ZM53.56,39.63c-.02-.13-.02-.25.02-.36.11-.58.8-.85,1.29-.49.11.04.2.13.27.25l4.24,6.94h0s.46,4.32.46,4.32c.01,1.01-1.24,1.51-1.92.76l-1.67-1.79c-.7-.75-1.17-1.69-1.37-2.7l-1.33-6.93ZM45.39,45.06c-.04-.09-.09-.18-.09-.27-.18-.63.47-1.23,1.09-1,.09.02.16.07.25.13l5.97,4.86c.28.22.5.5.67.82.53,1,1.77,3.27,1.77,3.27.38.94-.61,1.85-1.52,1.4l-3.63-2s0,0-.01,0l-4.5-7.2ZM39.72,53.07c-.07-.04-.13-.11-.18-.18-.42-.51-.02-1.36.67-1.36.09,0,.18.02.27.04l7.79,2.26c.12.03.23.1.31.19h0s2.42,2.42,2.42,2.42c.87.93.13,2.44-1.14,2.32l-2.94-.31-7.2-5.39ZM37.33,62.6c-.09-.02-.16-.04-.22-.11-.6-.33-.51-1.27.13-1.5.07-.04.16-.07.25-.07l7.24-.63c.55-.05,1.1.05,1.59.29h0s3.35,1.52,3.35,1.52c.91.44.8,1.78-.18,2.05l-3.3.62c-.39.07-.8.06-1.19-.05l-7.68-2.13ZM38.54,72.34c-.09.02-.18,0-.27-.02-.65-.11-.89-.96-.42-1.43.07-.07.16-.11.25-.16l7.17-3.53c.17-.08.37-.12.56-.11h0s4.02.46,4.02.46c1.01.08,1.39,1.37.58,1.98l-3.13,1.86c-.12.07-.25.11-.39.13l-8.35.81ZM50.71,77.21l-7.5,3.79c-.11.04-.2.07-.31.09-.63.07-1.14-.6-.87-1.18.02-.09.09-.18.16-.27l5.39-5.83c.13-.14.29-.24.47-.29h0s3.91-.95,3.91-.95c.97-.29,1.79.78,1.25,1.64l-2.19,2.75c-.08.1-.19.19-.3.25ZM57.49,77.56l-.75,2.94c-.03.11-.08.21-.15.29l-5.93,6.59c-.09.11-.2.18-.31.22-.4-.22-.8-.47-1.18-.74,0-.11.02-.25.07-.38l2.9-7.38c.05-.13.14-.25.25-.33h0s3.35-2.3,3.35-2.3c.8-.62,1.95.08,1.76,1.07ZM58.06,78.3l.38-2.01,1.55-1.85c.48-.57,1.41-.25,1.43.5l.04,1.37c-.08.06-.14.14-.2.24l-1.46,2.42c-.55.9-1.94.37-1.74-.66ZM62.97,82.65l-3.04,7.97c-.07.18-.16.29-.29.38-.38.31-1,.2-1.23-.22-.09-.11-.13-.27-.13-.45l.03-7.19c0-.38.11-.75.3-1.07h0s2.06-3.3,2.06-3.3c.52-.87,1.84-.63,2.03.37l.37,2.63c.04.3,0,.6-.1.89ZM63.49,79.63l-.38-2.01.79-2.3c.24-.71,1.23-.74,1.52-.05l.53,1.27c-.05.09-.09.19-.11.31l-.49,2.78c-.18,1.04-1.67,1.05-1.87.01ZM69.55,90.87c-.25.31-.74.4-1.09.2-.18-.09-.31-.25-.38-.45l-2.52-6.61c-.13-.34-.17-.71-.1-1.07h0s.65-3.82.65-3.82c.17-1,1.49-1.25,2.02-.39l1.34,2.37c.14.26.22.55.22.84l.06,8.39c0,.22-.07.4-.2.54ZM69.04,78.9l-1.07-1.73-.1-2.46c-.03-.75.88-1.13,1.4-.6l.96.99c-.02.11-.02.23,0,.35l.55,2.77c.21,1.04-1.18,1.58-1.74.68ZM78.77,86.49c.09.25.09.47,0,.65-.13.33-.49.54-.85.54-.2-.02-.42-.11-.58-.29l-4.95-5.51c-.11-.13-.19-.28-.22-.45h0s-.87-3.95-.87-3.95c-.2-.99.94-1.71,1.75-1.1l2.27,1.66c.12.09.22.21.27.36l3.18,8.09ZM85.82,79.64c.22.25.27.51.18.76-.04.27-.22.51-.47.63h-.02c-.22.09-.47.11-.71-.02l-6.28-3.18c-.29-.14-.53-.36-.7-.63h0s-2.27-3.11-2.27-3.11c-.54-.86.26-1.93,1.23-1.65l2.61.63c.3.07.56.23.77.45l5.66,6.13ZM89.91,70.73c.27.13.42.36.47.6.04.25-.02.54-.2.74h-.02c-.16.2-.4.31-.69.27l-7.16-.7c-.26-.03-.51-.12-.71-.27h0s-3.31-2-3.31-2c-.82-.6-.46-1.89.55-1.99l2.74-.36c.42-.05.84.02,1.22.2l7.12,3.5ZM91.23,62.11c-.09.22-.27.42-.56.49l-7.45,2.06s-.05-.02-.08-.03l-4.03-.65c-.98-.27-1.11-1.6-.2-2.05l2.21-1.23c.61-.34,1.3-.49,1.99-.43l7.4.65c.31.02.54.18.65.4.16.22.18.51.07.78Z"/>
  <line class="cls-9" x1="64.05" y1="64.06" x2="63.95" y2="63.94"/>
  <line class="cls-7" x1="64" y1="64.01" x2="64" y2="63.99"/>
  <text id="Sombra_Titulo" class="cls-16" transform="translate(31.05 27.33) rotate(-37.18)"><tspan x="0" y="0">T</tspan></text>
  <text class="cls-16" transform="translate(37.05 22.62) rotate(-27.34)"><tspan x="0" y="0">W</tspan></text>
  <text class="cls-16" transform="translate(45.29 18.36) rotate(-17.32)"><tspan x="0" y="0">O</tspan></text>
  <text class="cls-16" transform="translate(52.86 15.98) rotate(-8.37)"><tspan x="0" y="0">C</tspan></text>
  <text class="cls-16" transform="translate(60.18 14.93) rotate(-.93)"><tspan x="0" y="0">A</tspan></text>
  <text class="cls-16" transform="translate(66.37 14.77) rotate(7.29)"><tspan x="0" y="0">R</tspan></text>
  <text class="cls-16" transform="translate(73.68 15.66) rotate(15.9)"><tspan x="0" y="0">R</tspan></text>
  <text class="cls-16" transform="translate(80.73 17.6) rotate(24.81)"><tspan x="0" y="0">O</tspan></text>
  <text class="cls-16" transform="translate(87.99 21.04) rotate(32.32)"><tspan x="0" y="0">´</tspan></text>
  <text class="cls-16" transform="translate(92.1 23.51) rotate(39.4)"><tspan x="0" y="0">S</tspan></text>
  <text class="cls-16" transform="translate(97.81 28.24) rotate(46.84)"><tspan x="0" y="0"> </tspan></text>
  <text class="cls-16" transform="translate(101.59 32.24) rotate(53.21)"><tspan x="0" y="0"> </tspan></text>
  <text class="cls-16" transform="translate(104.89 36.61) rotate(59.58)"><tspan x="0" y="0"> </tspan></text>
  <text class="cls-16" transform="translate(107.71 41.35) rotate(66.02)"><tspan x="0" y="0"> </tspan></text>
  <text class="cls-16" transform="translate(109.96 46.35) rotate(72.46)"><tspan x="0" y="0"> </tspan></text>
  <text class="cls-16" transform="translate(111.63 51.56) rotate(78.88)"><tspan x="0" y="0"> </tspan></text>
  <text class="cls-16" transform="translate(112.71 56.95) rotate(85.29)"><tspan x="0" y="0"> </tspan></text>
  <text class="cls-16" transform="translate(113.19 62.43) rotate(91.59)"><tspan x="0" y="0"> </tspan></text>
  <text class="cls-16" transform="translate(113.06 67.94) rotate(97.97)"><tspan x="0" y="0"> </tspan></text>
  <text class="cls-16" transform="translate(112.32 73.37) rotate(104.39)"><tspan x="0" y="0"> </tspan></text>
  <text class="cls-16" transform="translate(110.97 78.72) rotate(110.86)"><tspan x="0" y="0"> </tspan></text>
  <text class="cls-16" transform="translate(109.04 83.86) rotate(117.3)"><tspan x="0" y="0"> </tspan></text>
  <text class="cls-16" transform="translate(106.55 88.75) rotate(123.7)"><tspan x="0" y="0"> </tspan></text>
  <text class="cls-16" transform="translate(103.53 93.32) rotate(130.05)"><tspan x="0" y="0"> </tspan></text>
  <text class="cls-16" transform="translate(100.01 97.54) rotate(136.41)"><tspan x="0" y="0"> </tspan></text>
  <text class="cls-16" transform="translate(96.04 101.35) rotate(142.78)"><tspan x="0" y="0"> </tspan></text>
  <text class="cls-16" transform="translate(91.66 104.71) rotate(149.19)"><tspan x="0" y="0"> </tspan></text>
  <text class="cls-16" transform="translate(86.98 107.53) rotate(155.58)"><tspan x="0" y="0"> </tspan></text>
  <text class="cls-16" transform="translate(82 109.82) rotate(162.01)"><tspan x="0" y="0"> </tspan></text>
  <text class="cls-16" transform="translate(76.77 111.54) rotate(168.48)"><tspan x="0" y="0"> </tspan></text>
  <text class="cls-16" transform="translate(71.39 112.66) rotate(174.88)"><tspan x="0" y="0"> </tspan></text>
  <text class="cls-16" transform="translate(65.93 113.17) rotate(-178.82)"><tspan x="0" y="0"> </tspan></text>
  <text class="cls-16" transform="translate(60.41 113.09) rotate(-172.44)"><tspan x="0" y="0"> </tspan></text>
  <text class="cls-16" transform="translate(54.96 112.39) rotate(-166.02)"><tspan x="0" y="0"> </tspan></text>
  <text class="cls-16" transform="translate(49.64 111.09) rotate(-159.58)"><tspan x="0" y="0"> </tspan></text>
  <text class="cls-16" transform="translate(44.48 109.19) rotate(-153.14)"><tspan x="0" y="0"> </tspan></text>
  <text class="cls-16" transform="translate(39.57 106.73) rotate(-146.73)"><tspan x="0" y="0"> </tspan></text>
  <text class="cls-16" transform="translate(34.98 103.75) rotate(-140.38)"><tspan x="0" y="0"> </tspan></text>
  <text class="cls-16" transform="translate(30.73 100.26) rotate(-134.02)"><tspan x="0" y="0"> </tspan></text>
  <text class="cls-16" transform="translate(26.89 96.32) rotate(-127.65)"><tspan x="0" y="0"> </tspan></text>
  <text class="cls-16" transform="translate(23.5 91.97) rotate(-121.24)"><tspan x="0" y="0"> </tspan></text>
  <text class="cls-16" transform="translate(20.64 87.31) rotate(-114.85)"><tspan x="0" y="0"> </tspan></text>
  <text class="cls-16" transform="translate(18.3 82.32) rotate(-108.39)"><tspan x="0" y="0"> </tspan></text>
  <text class="cls-16" transform="translate(16.55 77.1) rotate(-101.92)"><tspan x="0" y="0"> </tspan></text>
  <text class="cls-16" transform="translate(15.39 71.74) rotate(-95.53)"><tspan x="0" y="0"> </tspan></text>
  <text class="cls-16" transform="translate(14.83 66.3) rotate(-89.07)"><tspan x="0" y="0"> </tspan></text>
  <text class="cls-16" transform="translate(14.89 60.79) rotate(-82.89)"><tspan x="0" y="0"> </tspan></text>
  <text class="cls-16" transform="translate(15.54 55.34) rotate(-76.47)"><tspan x="0" y="0"> </tspan></text>
  <text class="cls-16" transform="translate(16.8 50) rotate(-70.02)"><tspan x="0" y="0"> </tspan></text>
  <text class="cls-16" transform="translate(18.66 44.82) rotate(-63.58)"><tspan x="0" y="0"> </tspan></text>
  <text class="cls-16" transform="translate(21.08 39.89) rotate(-57.16)"><tspan x="0" y="0"> </tspan></text>
  <text class="cls-16" transform="translate(24.05 35.25) rotate(-50.77)"><tspan x="0" y="0"> </tspan></text>
  <text class="cls-16" transform="translate(27.51 30.97) rotate(-44.4)"><tspan x="0" y="0"> </tspan></text>
  <text class="cls-16" transform="translate(31.43 27.11) rotate(-38.04)"><tspan x="0" y="0"> </tspan></text>
  <text class="cls-16" transform="translate(35.72 23.71) rotate(-31.67)"><tspan x="0" y="0"> </tspan></text>
  <text class="cls-16" transform="translate(40.39 20.8) rotate(-25.25)"><tspan x="0" y="0"> </tspan></text>
  <text class="cls-16" transform="translate(45.33 18.45) rotate(-18.83)"><tspan x="0" y="0"> </tspan></text>
  <text class="cls-16" transform="translate(50.53 16.65) rotate(-12.37)"><tspan x="0" y="0"> </tspan></text>
  <text class="cls-16" transform="translate(55.91 15.45) rotate(-5.93)"><tspan x="0" y="0"> </tspan></text>
  <text class="cls-16" transform="translate(61.32 14.83) rotate(.93)"><tspan x="0" y="0"> </tspan></text>
  <text class="cls-16" transform="translate(66.86 14.87) rotate(6.7)"><tspan x="0" y="0"> </tspan></text>
  <text class="cls-16" transform="translate(72.32 15.48) rotate(13.13)"><tspan x="0" y="0"> </tspan></text>
  <text class="cls-16" transform="translate(77.67 16.71) rotate(19.58)"><tspan x="0" y="0"> </tspan></text>
  <text class="cls-16" transform="translate(82.83 18.52) rotate(25.99)"><tspan x="0" y="0"> </tspan></text>
  <text class="cls-16" transform="translate(87.79 20.9) rotate(32.41)"><tspan x="0" y="0"> </tspan></text>
  <text class="cls-16" transform="translate(92.45 23.84) rotate(38.8)"><tspan x="0" y="0"> </tspan></text>
  <text class="cls-16" transform="translate(96.75 27.27) rotate(45.17)"><tspan x="0" y="0"> </tspan></text>
  <text class="cls-16" transform="translate(100.65 31.15) rotate(51.54)"><tspan x="0" y="0"> </tspan></text>
  <text class="cls-16" transform="translate(104.07 35.42) rotate(57.9)"><tspan x="0" y="0"> </tspan></text>
  <text class="cls-16" transform="translate(107.01 40.07) rotate(64.32)"><tspan x="0" y="0"> </tspan></text>
  <text class="cls-16" transform="translate(109.42 45.02) rotate(70.77)"><tspan x="0" y="0"> </tspan></text>
  <text class="cls-16" transform="translate(111.25 50.2) rotate(77.22)"><tspan x="0" y="0"> </tspan></text>
  <text class="cls-16" transform="translate(112.49 55.53) rotate(83.61)"><tspan x="0" y="0"> </tspan></text>
  <text class="cls-16" transform="translate(113.08 61.06) rotate(89.07)"><tspan x="0" y="0"> </tspan></text>
  <text class="cls-16" transform="translate(113.15 66.51) rotate(96.3)"><tspan x="0" y="0"> </tspan></text>
  <text class="cls-16" transform="translate(112.58 71.95) rotate(102.69)"><tspan x="0" y="0"> </tspan></text>
  <text class="cls-16" transform="translate(111.39 77.31) rotate(109.14)"><tspan x="0" y="0"> </tspan></text>
  <text class="cls-16" transform="translate(109.61 82.52) rotate(115.6)"><tspan x="0" y="0"> </tspan></text>
  <text class="cls-16" transform="translate(107.26 87.49) rotate(122.02)"><tspan x="0" y="0"> </tspan></text>
  <text class="cls-16" transform="translate(104.37 92.15) rotate(128.38)"><tspan x="0" y="0"> </tspan></text>
  <text class="cls-16" transform="translate(100.98 96.48) rotate(134.74)"><tspan x="0" y="0"> </tspan></text>
  <text class="cls-16" transform="translate(97.12 100.4) rotate(141.11)"><tspan x="0" y="0"> </tspan></text>
  <text class="cls-16" transform="translate(92.85 103.88) rotate(147.51)"><tspan x="0" y="0"> </tspan></text>
  <text class="cls-16" transform="translate(88.26 106.83) rotate(153.88)"><tspan x="0" y="0"> </tspan></text>
  <text class="cls-16" transform="translate(83.33 109.28) rotate(160.33)"><tspan x="0" y="0"> </tspan></text>
  <text class="cls-16" transform="translate(78.17 111.15) rotate(166.78)"><tspan x="0" y="0"> </tspan></text>
  <text class="cls-16" transform="translate(72.82 112.43) rotate(173.21)"><tspan x="0" y="0"> </tspan></text>
  <text class="cls-16" transform="translate(67.33 113.08) rotate(179.07)"><tspan x="0" y="0"> </tspan></text>
  <text class="cls-16" transform="translate(61.88 113.17) rotate(-174.16)"><tspan x="0" y="0"> </tspan></text>
  <text class="cls-16" transform="translate(56.39 112.63) rotate(-167.72)"><tspan x="0" y="0"> </tspan></text>
  <text id="Titulo" class="cls-18" transform="translate(30.21 26.84) rotate(-37.61)"><tspan x="0" y="0">T</tspan></text>
  <text class="cls-18" transform="translate(36.24 22.04) rotate(-27.86)"><tspan x="0" y="0">W</tspan></text>
  <text class="cls-18" transform="translate(44.55 17.66) rotate(-17.9)"><tspan x="0" y="0">O</tspan></text>
  <text class="cls-12" transform="translate(52.15 15.19) rotate(-9.05)"><tspan x="0" y="0">C</tspan></text>
  <text class="cls-12" transform="translate(59.54 14.03) rotate(-1.22)"><tspan x="0" y="0">A</tspan></text>
  <text class="cls-12" transform="translate(65.82 13.82) rotate(6.52)"><tspan x="0" y="0">R</tspan></text>
  <text class="cls-12" transform="translate(73.21 14.63) rotate(15.05)"><tspan x="0" y="0">R</tspan></text>
  <text class="cls-12" transform="translate(80.36 16.48) rotate(23.89)"><tspan x="0" y="0">O</tspan></text>
  <text class="cls-12" transform="translate(87.72 19.83) rotate(31.33)"><tspan x="0" y="0">´</tspan></text>
  <text class="cls-12" transform="translate(91.95 22.28) rotate(38.38)"><tspan x="0" y="0">S</tspan></text>
  <text class="cls-18" transform="translate(97.8 26.96) rotate(45.77)"><tspan x="0" y="0"> </tspan></text>
  <text class="cls-18" transform="translate(101.7 30.94) rotate(52.09)"><tspan x="0" y="0"> </tspan></text>
  <text class="cls-18" transform="translate(105.14 35.33) rotate(58.46)"><tspan x="0" y="0"> </tspan></text>
  <text class="cls-18" transform="translate(108.07 40.07) rotate(64.84)"><tspan x="0" y="0"> </tspan></text>
  <text class="cls-18" transform="translate(110.46 45.1) rotate(71.26)"><tspan x="0" y="0"> </tspan></text>
  <text class="cls-18" transform="translate(112.27 50.37) rotate(77.67)"><tspan x="0" y="0"> </tspan></text>
  <text class="cls-18" transform="translate(113.47 55.77) rotate(84.02)"><tspan x="0" y="0"> </tspan></text>
  <text class="cls-18" transform="translate(114.1 61.28) rotate(90.93)"><tspan x="0" y="0"> </tspan></text>
  <text class="cls-18" transform="translate(114.06 66.89) rotate(96.61)"><tspan x="0" y="0"> </tspan></text>
  <text class="cls-18" transform="translate(113.44 72.42) rotate(103)"><tspan x="0" y="0"> </tspan></text>
  <text class="cls-18" transform="translate(112.2 77.88) rotate(109.45)"><tspan x="0" y="0"> </tspan></text>
  <text class="cls-18" transform="translate(110.38 83.1) rotate(115.82)"><tspan x="0" y="0"> </tspan></text>
  <text class="cls-18" transform="translate(107.95 88.15) rotate(122.23)"><tspan x="0" y="0"> </tspan></text>
  <text class="cls-18" transform="translate(105.02 92.85) rotate(128.55)"><tspan x="0" y="0"> </tspan></text>
  <text class="cls-18" transform="translate(101.56 97.22) rotate(134.87)"><tspan x="0" y="0"> </tspan></text>
  <text class="cls-18" transform="translate(97.62 101.2) rotate(141.24)"><tspan x="0" y="0"> </tspan></text>
  <text class="cls-18" transform="translate(93.32 104.69) rotate(147.55)"><tspan x="0" y="0"> </tspan></text>
  <text class="cls-18" transform="translate(88.63 107.69) rotate(153.92)"><tspan x="0" y="0"> </tspan></text>
  <text class="cls-18" transform="translate(83.64 110.15) rotate(160.33)"><tspan x="0" y="0"> </tspan></text>
  <text class="cls-18" transform="translate(78.38 112.05) rotate(166.78)"><tspan x="0" y="0"> </tspan></text>
  <text class="cls-18" transform="translate(72.97 113.35) rotate(173.16)"><tspan x="0" y="0"> </tspan></text>
  <text class="cls-18" transform="translate(67.42 114.01) rotate(179.07)"><tspan x="0" y="0"> </tspan></text>
  <text class="cls-18" transform="translate(61.86 114.1) rotate(-174.25)"><tspan x="0" y="0"> </tspan></text>
  <text class="cls-18" transform="translate(56.35 113.57) rotate(-167.9)"><tspan x="0" y="0"> </tspan></text>
  <text class="cls-18" transform="translate(50.9 112.42) rotate(-161.48)"><tspan x="0" y="0"> </tspan></text>
  <text class="cls-18" transform="translate(45.6 110.66) rotate(-155.06)"><tspan x="0" y="0"> </tspan></text>
  <text class="cls-18" transform="translate(40.54 108.33) rotate(-148.67)"><tspan x="0" y="0"> </tspan></text>
  <text class="cls-18" transform="translate(35.77 105.45) rotate(-142.31)"><tspan x="0" y="0"> </tspan></text>
  <text class="cls-18" transform="translate(31.35 102.06) rotate(-135.98)"><tspan x="0" y="0"> </tspan></text>
  <text class="cls-18" transform="translate(27.33 98.21) rotate(-129.66)"><tspan x="0" y="0"> </tspan></text>
  <text class="cls-18" transform="translate(23.76 93.93) rotate(-123.31)"><tspan x="0" y="0"> </tspan></text>
  <text class="cls-18" transform="translate(20.69 89.29) rotate(-116.95)"><tspan x="0" y="0"> </tspan></text>
  <text class="cls-18" transform="translate(18.15 84.34) rotate(-110.55)"><tspan x="0" y="0"> </tspan></text>
  <text class="cls-18" transform="translate(16.17 79.12) rotate(-104.12)"><tspan x="0" y="0"> </tspan></text>
  <text class="cls-18" transform="translate(14.8 73.75) rotate(-97.74)"><tspan x="0" y="0"> </tspan></text>
  <text class="cls-18" transform="translate(14.03 68.21) rotate(-91.41)"><tspan x="0" y="0"> </tspan></text>
  <text class="cls-18" transform="translate(13.87 62.66) rotate(-85.15)"><tspan x="0" y="0"> </tspan></text>
  <text class="cls-18" transform="translate(14.33 57.08) rotate(-78.75)"><tspan x="0" y="0"> </tspan></text>
  <text class="cls-18" transform="translate(15.39 51.64) rotate(-72.37)"><tspan x="0" y="0"> </tspan></text>
  <text class="cls-18" transform="translate(17.06 46.31) rotate(-65.94)"><tspan x="0" y="0"> </tspan></text>
  <text class="cls-18" transform="translate(19.3 41.25) rotate(-59.58)"><tspan x="0" y="0"> </tspan></text>
  <text class="cls-18" transform="translate(22.11 36.42) rotate(-53.21)"><tspan x="0" y="0"> </tspan></text>
  <text class="cls-18" transform="translate(25.43 31.95) rotate(-46.88)"><tspan x="0" y="0"> </tspan></text>
  <text class="cls-18" transform="translate(29.22 27.88) rotate(-40.56)"><tspan x="0" y="0"> </tspan></text>
  <text class="cls-18" transform="translate(33.44 24.24) rotate(-34.22)"><tspan x="0" y="0"> </tspan></text>
  <text class="cls-18" transform="translate(38.05 21.08) rotate(-27.82)"><tspan x="0" y="0"> </tspan></text>
  <text class="cls-18" transform="translate(42.96 18.47) rotate(-21.43)"><tspan x="0" y="0"> </tspan></text>
  <text class="cls-18" transform="translate(48.14 16.41) rotate(-15.01)"><tspan x="0" y="0"> </tspan></text>
  <text class="cls-18" transform="translate(53.5 14.95) rotate(-8.62)"><tspan x="0" y="0"> </tspan></text>
  <text class="cls-18" transform="translate(59.02 14.1) rotate(-2.27)"><tspan x="0" y="0"> </tspan></text>
  <text class="cls-18" transform="translate(64.58 13.86) rotate(3.99)"><tspan x="0" y="0"> </tspan></text>
  <text class="cls-18" transform="translate(70.14 14.23) rotate(10.35)"><tspan x="0" y="0"> </tspan></text>
  <text class="cls-18" transform="translate(75.61 15.2) rotate(16.74)"><tspan x="0" y="0"> </tspan></text>
  <text class="cls-18" transform="translate(80.93 16.78) rotate(23.15)"><tspan x="0" y="0"> </tspan></text>
  <text class="cls-18" transform="translate(86.07 18.96) rotate(29.55)"><tspan x="0" y="0"> </tspan></text>
  <text class="cls-18" transform="translate(90.94 21.7) rotate(35.93)"><tspan x="0" y="0"> </tspan></text>
  <text class="cls-18" transform="translate(95.46 24.95) rotate(42.27)"><tspan x="0" y="0"> </tspan></text>
  <text class="cls-18" transform="translate(99.59 28.68) rotate(48.59)"><tspan x="0" y="0"> </tspan></text>
  <text class="cls-18" transform="translate(103.29 32.85) rotate(54.93)"><tspan x="0" y="0"> </tspan></text>
  <text class="cls-18" transform="translate(106.5 37.38) rotate(61.27)"><tspan x="0" y="0"> </tspan></text>
  <text class="cls-18" transform="translate(109.2 42.27) rotate(67.69)"><tspan x="0" y="0"> </tspan></text>
  <text class="cls-18" transform="translate(111.34 47.41) rotate(74.1)"><tspan x="0" y="0"> </tspan></text>
  <text class="cls-18" transform="translate(112.88 52.75) rotate(80.5)"><tspan x="0" y="0"> </tspan></text>
  <text class="cls-18" transform="translate(113.81 58.22) rotate(86.83)"><tspan x="0" y="0"> </tspan></text>
  <text class="cls-18" transform="translate(114.14 63.78) rotate(93.08)"><tspan x="0" y="0"> </tspan></text>
  <text class="cls-18" transform="translate(113.86 69.36) rotate(99.45)"><tspan x="0" y="0"> </tspan></text>
  <text class="cls-18" transform="translate(112.97 74.86) rotate(105.86)"><tspan x="0" y="0"> </tspan></text>
  <text class="cls-18" transform="translate(111.47 80.21) rotate(112.27)"><tspan x="0" y="0"> </tspan></text>
  <text class="cls-18" transform="translate(109.37 85.39) rotate(118.69)"><tspan x="0" y="0"> </tspan></text>
  <text class="cls-18" transform="translate(106.72 90.27) rotate(125.03)"><tspan x="0" y="0"> </tspan></text>
  <text class="cls-18" transform="translate(103.54 94.85) rotate(131.37)"><tspan x="0" y="0"> </tspan></text>
  <text class="cls-18" transform="translate(99.87 99.03) rotate(137.69)"><tspan x="0" y="0"> </tspan></text>
  <text class="cls-18" transform="translate(95.77 102.8) rotate(144.02)"><tspan x="0" y="0"> </tspan></text>
  <text class="cls-18" transform="translate(91.26 106.1) rotate(150.4)"><tspan x="0" y="0"> </tspan></text>
  <text class="cls-18" transform="translate(86.45 108.85) rotate(156.76)"><tspan x="0" y="0"> </tspan></text>
  <text class="cls-18" transform="translate(81.32 111.07) rotate(163.21)"><tspan x="0" y="0"> </tspan></text>
  <text class="cls-18" transform="translate(76.01 112.7) rotate(169.6)"><tspan x="0" y="0"> </tspan></text>
  <text class="cls-18" transform="translate(70.53 113.72) rotate(175.96)"><tspan x="0" y="0"> </tspan></text>
  <text class="cls-18" transform="translate(64.98 114.13) rotate(-177.78)"><tspan x="0" y="0"> </tspan></text>
  <text class="cls-18" transform="translate(59.42 113.94) rotate(-171.45)"><tspan x="0" y="0"> </tspan></text>
  <g>
    <path class="cls-20" d="M20.32,91.17l-.47.27-1.37-2.36-.71.41,1.09,1.89-.47.27-1.09-1.89-.71.41,1.37,2.36-.47.27-1.64-2.83,2.83-1.64,1.64,2.83Z"/>
    <path class="cls-20" d="M20.96,92.13l.3.46-.46.3-.3-.46c-.06-.1-.15-.15-.26-.18-.11-.02-.21,0-.31.06-.09.06-.15.15-.18.26-.02.11,0,.21.06.31.14.22.19.46.14.72s-.19.46-.41.6c-.22.14-.46.19-.72.14-.26-.05-.46-.19-.6-.41l-.52-.8.46-.3.52.8c.06.1.15.15.26.18.11.02.21,0,.31-.06.09-.06.15-.15.18-.26.02-.11,0-.21-.06-.31-.14-.22-.19-.46-.14-.72s.19-.46.41-.6c.22-.14.46-.19.72-.14s.46.19.6.41Z"/>
    <path class="cls-20" d="M23.36,95.52l-.44.32-.8-1.1-2.21,1.6-.32-.44,2.21-1.6-.8-1.1.44-.32,1.92,2.65Z"/>
    <path class="cls-20" d="M25.55,98.16l-.42.35-1.75-2.09-.63.52,1.4,1.67-.42.35-1.4-1.67-.63.52,1.75,2.09-.42.35-2.1-2.51,2.51-2.1,2.1,2.51ZM25.38,96.89l-.65.08-.25-.29.65-.08.25.29Z"/>
    <path class="cls-20" d="M27.92,100.65l-.39.38-.94-.99-1.97,1.88-.38-.39,1.97-1.88-.94-.99.39-.38,2.26,2.37Z"/>
    <path class="cls-20" d="M26.17,103.48l-.39-.38,2.28-2.35.39.38-2.28,2.35Z"/>
    <path class="cls-20" d="M28,104.43l-.37.4c-.33-.31-.51-.68-.53-1.14-.02-.45.12-.84.43-1.18.3-.33.68-.51,1.13-.53.45-.02.84.12,1.18.43l-.37.4c-.22-.2-.48-.3-.78-.29s-.55.13-.76.35-.3.48-.29.78c.01.3.13.55.35.76Z"/>
    <path class="cls-20" d="M28.91,103.81c.29-.35.66-.54,1.11-.58s.85.08,1.2.37c.35.29.54.66.58,1.11.04.45-.08.85-.37,1.2l-1.04,1.26-.42-.35.35-.42-1.68-1.39-.35.42-.42-.35,1.04-1.26ZM30.66,105.97l.35-.42c.19-.23.27-.5.25-.8-.03-.3-.16-.55-.39-.74-.23-.19-.5-.27-.8-.25-.3.03-.55.16-.74.39l-.35.42,1.68,1.39Z"/>
    <path class="cls-11" d="M32.73,106.88c.25-.37.6-.6,1.05-.68.44-.08.85,0,1.22.26.37.25.6.6.68,1.05.08.44,0,.85-.26,1.23l-.92,1.35-.45-.31.31-.45-1.8-1.23-.31.45-.45-.31.92-1.35ZM34.67,108.87l.31-.45c.17-.25.23-.52.17-.82-.06-.3-.21-.53-.46-.7-.25-.17-.52-.23-.82-.17-.3.06-.53.21-.7.46l-.31.45,1.8,1.23Z"/>
    <path class="cls-11" d="M35.67,108.88l.83-1.41.47.28-.83,1.41c-.15.26-.19.54-.12.83s.24.51.5.67c.26.15.54.19.83.12.29-.08.51-.24.67-.5l.83-1.41.47.28-.83,1.41c-.23.39-.56.64-1,.75s-.85.05-1.24-.17c-.39-.23-.64-.56-.75-1-.11-.44-.05-.85.18-1.24Z"/>
    <path class="cls-11" d="M42.41,110.69l-.24.49-1.22-.61-1.22,2.44-.49-.25,1.22-2.44-1.22-.61.25-.49,2.92,1.47Z"/>
    <path class="cls-11" d="M42.52,114.3c-.41-.18-.71-.48-.87-.9-.17-.42-.16-.84.01-1.25.18-.41.48-.71.9-.87.42-.17.84-.16,1.25.01s.71.48.88.9.16.84-.01,1.25-.48.71-.9.88c-.42.17-.84.16-1.25-.01ZM42.74,113.8c.28.12.56.12.83,0,.28-.11.48-.31.6-.58.12-.28.12-.56,0-.83-.11-.28-.31-.48-.58-.6-.28-.12-.56-.12-.83,0s-.48.31-.6.58c-.12.28-.12.56,0,.83s.31.48.58.6Z"/>
    <path class="cls-11" d="M45.73,112.82l-.85,2.44-.51-.18,1.08-3.09.65.23.49,1.44,1.29-.82.65.23-1.08,3.09-.51-.18.85-2.43-1.01.64-.47.3-.18-.53-.39-1.14Z"/>
    <path class="cls-11" d="M49.4,116.7c-.44-.12-.76-.38-.99-.77-.22-.39-.27-.81-.15-1.24s.38-.76.77-.99c.39-.22.81-.27,1.24-.15.43.12.76.38.99.77s.27.81.15,1.24-.38.76-.77.99-.81.27-1.24.15ZM49.54,116.18c.29.08.57.05.83-.1s.43-.37.51-.66c.08-.29.05-.57-.1-.83s-.37-.43-.66-.51c-.29-.08-.57-.05-.83.1-.26.15-.43.37-.51.66s-.05.57.1.83.37.43.66.51Z"/>
    <path class="cls-11" d="M54.96,114.64l-.11.53-1.33-.28-.56,2.67-.53-.11.56-2.67-1.33-.28.11-.53,3.2.67Z"/>
    <path class="cls-11" d="M56.34,114.84c.26.04.47.17.62.38.16.21.21.45.18.71l-.04.27c-.04.26-.17.47-.38.62-.19.14-.39.2-.62.18l.69,1.21-.69-.1-.69-1.21h-.08s-.16,1.07-.16,1.07l-.54-.08.49-3.23,1.21.18ZM56.6,115.84c.02-.11,0-.21-.08-.3-.07-.09-.16-.14-.27-.16l-.67-.1-.16,1.08.67.1c.11.02.21,0,.3-.07.09-.07.14-.16.16-.27l.04-.27Z"/>
    <path class="cls-11" d="M57.65,118.31l-.54-.07.39-3.25.54.07-.39,3.25Z"/>
    <path class="cls-11" d="M60.35,115.83l-2.14-.17.04-.54,3.26.26-2.36,2.55,2.14.17-.04.54-3.26-.26,2.36-2.55Z"/>
    <path class="cls-11" d="M66.02,117.28l-1.63.04v-.54s1.62-.04,1.62-.04v.55Z"/>
    <path class="cls-20" d="M68.8,115.21l.54-.07.34,2.71,2.71-.34.07.54-3.25.4-.41-3.25Z"/>
    <path class="cls-20" d="M73.35,117.88l-.54.09-.54-3.23.54-.09.54,3.23Z"/>
    <path class="cls-20" d="M73.67,115.21l.53,2.53-.53.11-.67-3.2.68-.14,1.17.98.68-1.37.68-.14.67,3.2-.53.11-.53-2.52-.53,1.08-.25.5-.43-.36-.92-.77Z"/>
    <path class="cls-20" d="M77.56,113.6c.25-.07.5-.04.72.09.23.13.38.32.45.58l.07.26c.07.25.04.5-.09.72-.13.23-.32.38-.58.45l-.66.18.28,1.05-.53.14-.85-3.16,1.18-.32ZM78.2,114.41c-.03-.11-.09-.19-.19-.25-.1-.06-.2-.07-.31-.04l-.66.18.28,1.05.66-.18c.11-.03.19-.09.25-.19.06-.1.07-.2.04-.31l-.07-.26Z"/>
    <path class="cls-20" d="M80.16,116.25l-.52.16-.95-3.13.52-.16.95,3.13Z"/>
    <path class="cls-20" d="M82.51,112l.18.51-2.57.9.27.77,2.06-.72.18.51-2.06.72.27.77,2.57-.9.18.51-3.09,1.08-1.08-3.09,3.09-1.08Z"/>
    <path class="cls-20" d="M84.87,111.59l-1.98.84-.21-.5,3.01-1.29-.9,3.35,1.98-.84.21.5-3.01,1.29.91-3.35Z"/>
    <path class="cls-20" d="M86.58,112.04c-.21-.4-.24-.82-.1-1.25.14-.43.41-.75.81-.95.4-.21.82-.24,1.25-.1.43.14.75.41.95.81l.74,1.46-.49.25-.25-.49-1.94.99.25.49-.49.25-.74-1.46ZM89.26,111.28l-.25-.49c-.14-.27-.35-.45-.63-.54-.29-.09-.56-.07-.83.07s-.45.35-.54.63c-.09.29-.07.56.07.83l.25.49,1.94-.99Z"/>
    <path class="cls-11" d="M90.52,108.05c.38-.24.8-.3,1.24-.2s.78.35,1.02.73c.24.38.3.8.2,1.24s-.35.78-.73,1.02l-.46.29-1.72-2.78.46-.29ZM91.95,110.37c.26-.16.42-.38.49-.68s.02-.57-.13-.82c-.16-.26-.38-.42-.68-.49-.29-.07-.57-.02-.82.13l1.15,1.85Z"/>
    <path class="cls-11" d="M94.75,105.23l.31.45-2.23,1.56.47.67,1.79-1.25.31.45-1.79,1.25.47.67,2.24-1.56.31.45-2.68,1.87-1.87-2.68,2.68-1.87Z"/>
    <path class="cls-11" d="M98.42,102.22l.35.42-1.04.88,1.76,2.08-.42.35-1.76-2.08-1.04.88-.35-.42,2.5-2.11Z"/>
    <path class="cls-11" d="M99.47,103.47c-.31-.33-.46-.72-.45-1.17,0-.45.18-.83.5-1.15.33-.31.72-.46,1.17-.45.45.01.83.18,1.15.5l1.13,1.18-.39.38-.38-.39-1.58,1.51.38.39-.39.38-1.13-1.18ZM101.82,101.98l-.38-.39c-.21-.22-.46-.33-.76-.34-.3,0-.56.09-.78.3-.22.21-.33.46-.34.76s.09.56.3.78l.38.39,1.58-1.51Z"/>
    <path class="cls-11" d="M101.65,99c.18-.19.4-.29.66-.3.26,0,.49.08.68.26l.2.19c.19.18.29.4.3.66,0,.26-.08.49-.26.68l-.47.5.8.74-.37.4-2.39-2.23.84-.9ZM102.62,99.36c-.08-.08-.18-.11-.29-.11s-.21.05-.29.13l-.46.5.8.74.47-.5c.08-.08.11-.18.11-.29s-.05-.21-.13-.29l-.2-.19Z"/>
    <path class="cls-11" d="M105.28,99.86l-.36.41-2.46-2.16.36-.41,2.46,2.16Z"/>
    <path class="cls-11" d="M104.73,96.25l-1.35,1.67-.42-.34,2.06-2.54.77,3.39,1.35-1.67.42.34-2.06,2.54-.77-3.39Z"/>
    <path class="cls-11" d="M106.45,95.85c-.37-.26-.59-.61-.67-1.06s.01-.85.27-1.22.61-.59,1.06-.67.85.01,1.22.27l1.34.94-.31.45-.45-.31-1.26,1.78.45.31-.31.45-1.34-.94ZM108.47,93.93l-.45-.31c-.25-.17-.52-.23-.81-.18-.3.05-.53.2-.71.45-.17.25-.24.52-.18.81.05.3.2.53.45.71l.45.31,1.26-1.78Z"/>
    <path class="cls-11" d="M107.37,91.61c.24-.38.58-.63,1.02-.73.44-.1.85-.03,1.23.21.38.24.63.58.73,1.02.1.44.03.85-.21,1.23l-.29.46-2.78-1.73.29-.46ZM109.68,93.05c.16-.26.21-.53.14-.82-.07-.29-.23-.52-.49-.68-.26-.16-.53-.21-.82-.14-.29.07-.52.23-.68.49l1.85,1.15Z"/>
    <path class="cls-11" d="M112,90.21c-.22.4-.54.66-.98.78s-.85.08-1.24-.13c-.4-.22-.66-.54-.79-.98s-.08-.85.13-1.24.54-.66.98-.78.85-.08,1.25.13c.4.22.66.54.78.98.13.43.08.85-.13,1.24ZM111.52,89.95c.14-.26.17-.54.09-.83-.08-.29-.26-.51-.52-.65-.26-.14-.54-.17-.83-.09-.29.08-.51.26-.65.52-.14.26-.17.54-.09.83.08.29.26.51.52.65.26.14.54.17.83.09.29-.08.51-.26.65-.52Z"/>
    <path class="cls-11" d="M110.4,86.15l.24-.49.49.23-.24.49c-.05.1-.05.21-.02.31.04.11.11.18.21.23.1.05.21.05.31.02.11-.04.18-.11.23-.21.11-.24.29-.4.54-.49.25-.09.49-.07.73.04.24.11.4.29.49.54.09.25.07.49-.04.73l-.41.86-.49-.24.41-.86c.05-.1.05-.21.02-.31-.04-.11-.11-.18-.21-.23-.1-.05-.21-.06-.31-.02-.11.04-.18.11-.23.21-.11.24-.29.4-.54.49-.25.09-.49.07-.73-.04-.24-.11-.4-.29-.49-.54-.09-.25-.08-.49.04-.73Z"/>
  </g>
  <circle class="cls-1" cx="64" cy="64" r="40.07"/>
  <text class="cls-26" transform="translate(63.79 64.59)"><tspan x="0" y="0"> </tspan></text>
  <text class="cls-13" transform="translate(59.69 65.15)"><tspan x="0" y="0">CHS</tspan></text>
  <text class="cls-17" transform="translate(59.24 65.15)"><tspan x="0" y="0">CHS</tspan></text>
</svg>