<svg xmlns="http://www.w3.org/2000/svg" xmlns:xlink="http://www.w3.org/1999/xlink" viewBox="0,0,256,256" width="96px" height="96px"><g fill="none" fill-rule="nonzero" stroke="none" stroke-width="1" stroke-linecap="butt" stroke-linejoin="miter" stroke-miterlimit="10" stroke-dasharray="" stroke-dashoffset="0" font-family="none" font-weight="none" font-size="none" text-anchor="none" style="mix-blend-mode: normal"><g transform="scale(5.33333,5.33333)"><path d="M42.893,24c-1.003,-9.54 -9.092,-17 -18.893,-17c-10.477,0 -19,8.523 -19,19c0,2.975 0.706,5.93 2.047,8.577l-2.513,7.423h-0.534v2c0,1.103 0.897,2 2,2c0.281,0 0.391,-0.032 0.798,-0.15l9.004,-2.725c2.587,1.244 5.343,1.875 8.198,1.875c10.477,0 19,-8.523 19,-19v-2z" fill="#33bc54"></path><path d="M24,6c-9.941,0 -18,8.059 -18,18c0,3.072 0.773,5.962 2.131,8.493l-2.881,8.507c-0.25,0.875 -0.25,0.799 -0.25,1c0,0.552 0.448,1 1,1c0.181,0 0.125,0 1,-0.25l8.89,-2.696c2.439,1.235 5.189,1.946 8.11,1.946c9.941,0 18,-8.059 18,-18c0,-9.941 -8.059,-18 -18,-18z" fill="#ffffff"></path><path d="M29.241,34.313c-0.913,0 -2.313,-0.232 -5.192,-1.367c-3.126,-1.233 -6.2,-3.914 -8.654,-7.549l-0.081,-0.118c-0.658,-0.881 -2.18,-3.181 -2.18,-5.619c0,-2.631 1.314,-4.033 1.876,-4.632l0.088,-0.095c0.77,-0.842 1.677,-0.933 2.032,-0.933c0.38,0.004 0.697,0 0.977,0.013c0.661,0.026 1.416,0.217 1.96,1.428c0.26,0.577 0.7,1.663 1.042,2.507c0.216,0.531 0.389,0.96 0.442,1.074c0.298,0.593 0.312,1.181 0.035,1.733l-0.066,0.134c-0.13,0.267 -0.266,0.543 -0.554,0.88l-0.241,0.289c-0.17,0.207 -0.342,0.412 -0.493,0.57c0.397,0.656 1.237,1.912 2.4,2.949c1.43,1.274 2.655,1.807 3.313,2.093c0.138,0.06 0.252,0.11 0.34,0.153c0.39,-0.451 1.102,-1.303 1.346,-1.669c0.781,-1.167 1.86,-0.777 2.268,-0.629c0.582,0.211 3.399,1.612 3.427,1.626l0.261,0.128c0.427,0.207 0.829,0.401 1.08,0.821c0.397,0.664 0.175,2.102 -0.2,3.156c-0.545,1.529 -2.881,2.855 -4.13,2.97l-0.235,0.025c-0.254,0.03 -0.525,0.062 -0.861,0.062zM17.288,16c-0.031,0 -0.063,0 -0.093,0c-0.115,0 -0.376,0.014 -0.623,0.284l-0.104,0.111c-0.467,0.497 -1.335,1.424 -1.335,3.264c0,1.891 1.361,3.858 1.778,4.416c0.028,0.038 0.073,0.104 0.14,0.201c2.231,3.304 4.977,5.722 7.731,6.808c3.469,1.368 4.364,1.265 5.086,1.182l0.286,-0.031c0.628,-0.057 2.189,-0.984 2.426,-1.649c0.219,-0.611 0.286,-1.136 0.296,-1.429c-0.05,-0.023 -0.104,-0.048 -0.161,-0.076l-0.289,-0.142c-0.654,-0.329 -2.86,-1.406 -3.212,-1.534c-0.005,-0.001 -0.009,-0.003 -0.014,-0.005c-0.453,0.629 -1.315,1.634 -1.525,1.873c-0.409,0.47 -1.134,0.915 -2.251,0.356c-0.068,-0.035 -0.161,-0.074 -0.276,-0.124c-0.707,-0.308 -2.179,-0.947 -3.848,-2.436c-1.502,-1.338 -2.528,-2.968 -2.9,-3.606c-0.449,-0.768 -0.325,-1.509 0.371,-2.203c0.123,-0.123 0.265,-0.298 0.408,-0.473l0.268,-0.32c0.122,-0.143 0.167,-0.235 0.276,-0.457l0.041,-0.083c-0.094,-0.209 -0.281,-0.666 -0.51,-1.229c-0.332,-0.82 -0.761,-1.877 -1.013,-2.438v0c-0.086,-0.191 -0.146,-0.261 -0.16,-0.274c0.022,0.024 -0.017,0.024 -0.06,0.024c-0.228,-0.009 -0.478,-0.01 -0.733,-0.01zM19.785,19.973h0.01zM19.797,19.86v0zM18.08,15.984v0z" fill="#33bc54"></path><path d="M6,44c-1.103,0 -2,-0.897 -2,-2c0,-0.29 0.032,-0.397 0.137,-0.754l0.151,-0.521l2.759,-8.148c-1.341,-2.647 -2.047,-5.602 -2.047,-8.577c0,-10.477 8.523,-19 19,-19c10.477,0 19,8.523 19,19c0,10.477 -8.523,19 -19,19c-2.855,0 -5.611,-0.631 -8.198,-1.875l-9.004,2.725c-0.407,0.118 -0.517,0.15 -0.798,0.15zM24,7c-9.374,0 -17,7.626 -17,17c0,2.792 0.695,5.565 2.012,8.021c0.131,0.244 0.155,0.531 0.066,0.793l-3.023,8.999c-0.033,0.114 -0.053,0.178 -0.063,0.223c0.021,-0.038 0.098,-0.063 0.247,-0.105l0.487,-0.142l8.874,-2.691c0.247,-0.073 0.512,-0.052 0.742,0.064c2.408,1.22 4.985,1.838 7.658,1.838c9.374,0 17,-7.626 17,-17c0,-9.374 -7.626,-17 -17,-17z" fill="#33bc54"></path></g></g></svg>