<?xml version="1.0" encoding="UTF-8"?>
<svg version="1.1" viewBox="0 0 3272 432" width="1280" height="1280" xmlns="http://www.w3.org/2000/svg">
<path transform="translate(335,53)" d="m0 0h60l9 2 5 6 5 16 12 45 11 43 13 49 12 46 2 2 4-13 18-67 1-3v-9l-11-42-15-57-1-5v-8l3-4 3-1h117l16 1 3 2v8l-6 25-17 65-4 15v9l14 54 8 31v3h2l1-8 15-57 24-91 12-45 5-9 7-3h56l13 1 4 2v11l-13 50-13 49-24 91-26 98-14 53-4 12-5 8-2 1-18 1h-36l-20-1-5-4-5-12-18-68-3-8-6 25-11 41-5 17-4 6-4 3-19 1h-34l-21-1-5-5-5-13-15-58-18-68-12-45-11-43-35-133 1-7 3-3z" fill="#FEFEFE"/>
<path transform="translate(2427,53)" d="m0 0h278l7 3 3 4v360l-4 8-2 1h-285l-3-1-3-5v-362l3-6zm73 82v212h132v-212z" fill="#FEFEFE"/>
<path transform="translate(779,53)" d="m0 0h280l8 3 2 3v364l-4 5-3 1-34 1h-230l-20-1-4-4-2-10v-352l4-8zm75 82v212h133v-212z" fill="#fff"/>
<path transform="translate(3011,53)" d="m0 0h250l7 2 4 4v101l-6 5h-71l-5-8-1-21h-106v64h161l22 1 6 6v219l-2-1-3 4-8 1h-212l-40-1-5-5-1-5v-92l4-6 5-3h64l7 3 2 4v22l106-1 1-63h-181l-6-3-2-3-1-7v-207l4-8z" fill="#FEFEFE"/>
<path transform="translate(1759,53)" d="m0 0h254l6 3 2 3 1 133-1 89-5 6-2 1h-43l11 25 34 78 12 28v9l-2 1-20 1h-32l-21-1-8-7-10-21-12-27-14-32-18-41-5-11v-2h-54v133l-4 7-2 1-18 1h-33l-19-1-5-5-1-2v-360l4-6zm73 82v70l104 1 3-1v-70z" fill="#FEFEFE"/>
<path transform="translate(2092,53)" d="m0 0h251l9 2 3 4v222l-5 6-4 1h-41l11 25 17 39 18 41 11 26 1 5-1 4-2 1-32 1h-17l-24-1-7-6-9-17-21-48-13-30-11-25-6-12v-3h-54v133l-4 7-2 1-17 1h-46l-9-2-4-6v-360l6-8zm74 82v70h107v-70z" fill="#FEFEFE"/>
<path transform="translate(1140,53)" d="m0 0h254l7 3 2 3v124l-5 6-3 1h-67l-5-3-2-4v-48h-108v212h107l1-68 4-8 2-1h70l5 5 1 2v145l-3 5-2 2-18 1h-78l-165-1-3-3-2-4-1-12v-346l2-6 4-4z" fill="#FDFDFD"/>
<path transform="translate(1545,53)" d="m0 0h61l10 2 4 5 4 10 13 50 11 42 26 98 27 102 14 53v11l-3 3-24 1h-28l-21-1-5-5-4-8-7-26-2-10h-88l-1 9-7 26-6 12-4 2-17 1h-27l-29-1-3-4 1-11 21-81 11-42 24-91 22-84 13-49 4-9 5-4zm32 163-6 21-14 53-1 8h43l-13-52-6-23-2-7z" fill="#FEFEFE"/>
<path transform="translate(11,53)" d="m0 0h270l6 3 2 3v70l-5 5-2 1h-94v176l-1 111-3 5-2 2-26 1h-25l-21-1-4-4-1-4v-286h-93l-7-3-2-4v-67l3-5z" fill="#FEFEFE"/>
<path transform="translate(2858,3)" d="m0 0h71l3 1 1 5-3 10-18 43-6 11-5 5-3 2h-73l-2-1 1-9 6-16 11-26 6-13 5-8z" fill="#FEFEFE"/>
<path transform="translate(3271,161)" d="m0 0" fill="#fff"/>
<path transform="translate(2097,431)" d="m0 0" fill="#fff"/>
<path transform="translate(1449,431)" d="m0 0" fill="#fff"/>
<path transform="translate(1145,431)" d="m0 0" fill="#fff"/>
<path transform="translate(569,431)" d="m0 0" fill="#fff"/>
<path transform="translate(433,431)" d="m0 0" fill="#fff"/>
<path transform="translate(1446,430)" d="m0 0" fill="#fff"/>
</svg>
